<?xml version="1.0" encoding="UTF-8" standalone="no"?>
<svg
   xmlns:dc="http://purl.org/dc/elements/1.1/"
   xmlns:cc="http://creativecommons.org/ns#"
   xmlns:rdf="http://www.w3.org/1999/02/22-rdf-syntax-ns#"
   xmlns:svg="http://www.w3.org/2000/svg"
   xmlns="http://www.w3.org/2000/svg"
   xmlns:sodipodi="http://sodipodi.sourceforge.net/DTD/sodipodi-0.dtd"
   xmlns:inkscape="http://www.inkscape.org/namespaces/inkscape"
   version="1.1"
   width="1440"
   height="560"
   preserveAspectRatio="none"
   viewBox="0 0 1440 560"
   id="svg46"
   sodipodi:docname="Hexagon blk.svg"
   inkscape:version="1.0.2-2 (e86c870879, 2021-01-15)">
  <metadata
     id="metadata50">
    <rdf:RDF>
      <cc:Work
         rdf:about="">
        <dc:format>image/svg+xml</dc:format>
        <dc:type
           rdf:resource="http://purl.org/dc/dcmitype/StillImage" />
        <dc:title></dc:title>
      </cc:Work>
    </rdf:RDF>
  </metadata>
  <sodipodi:namedview
     pagecolor="#ffffff"
     bordercolor="#666666"
     borderopacity="1"
     objecttolerance="10"
     gridtolerance="10"
     guidetolerance="10"
     inkscape:pageopacity="0"
     inkscape:pageshadow="2"
     inkscape:window-width="1920"
     inkscape:window-height="1001"
     id="namedview48"
     showgrid="false"
     inkscape:zoom="1.1951389"
     inkscape:cx="711.10669"
     inkscape:cy="280"
     inkscape:window-x="-9"
     inkscape:window-y="-9"
     inkscape:window-maximized="1"
     inkscape:current-layer="svg46" />
  <g
     mask="url(&quot;#SvgjsMask1000&quot;)"
     fill="none"
     id="g39">
    <rect
       width="1440"
       height="560"
       x="0"
       y="0"
       fill="#0e2a47"
       id="rect31"
       style="fill:#000000" />
    <path
       d="M68.33 -4.74L133.28 32.76L133.28 107.76L68.33 145.26L3.38 107.76L3.38 32.76zM133.28 332.76L198.24 370.26L198.24 445.26L133.28 482.76L68.33 445.26L68.33 370.26zM263.19 107.76L328.14 145.26L328.14 220.26L263.19 257.76L198.24 220.26L198.24 145.26zM198.24 220.26L263.19 257.76L263.19 332.76L198.24 370.26L133.28 332.76L133.28 257.76zM198.24 445.26L263.19 482.76L263.19 557.76L198.24 595.26L133.28 557.76L133.28 482.76zM328.14 445.26L393.1 482.76L393.1 557.76L328.14 595.26L263.19 557.76L263.19 482.76zM393.1 557.76L458.05 595.26L458.05 670.26L393.1 707.76L328.14 670.26L328.14 595.26zM458.05 -4.74L523.01 32.76L523.01 107.76L458.05 145.26L393.1 107.76L393.1 32.76zM458.05 220.26L523.01 257.76L523.01 332.76L458.05 370.26L393.1 332.76L393.1 257.76zM652.91 107.76L717.87 145.26L717.87 220.26L652.91 257.76L587.96 220.26L587.96 145.26zM587.96 220.26L652.91 257.76L652.91 332.76L587.96 370.26L523.01 332.76L523.01 257.76zM782.82 107.76L847.78 145.26L847.78 220.26L782.82 257.76L717.87 220.26L717.87 145.26zM912.73 107.76L977.68 145.26L977.68 220.26L912.73 257.76L847.77 220.26L847.77 145.26zM847.77 220.26L912.73 257.76L912.73 332.76L847.77 370.26L782.82 332.76L782.82 257.76zM847.77 445.26L912.73 482.76L912.73 557.76L847.77 595.26L782.82 557.76L782.82 482.76zM912.73 557.76L977.68 595.26L977.68 670.26L912.73 707.76L847.77 670.26L847.77 595.26zM977.68 -4.74L1042.64 32.76L1042.64 107.76L977.68 145.26L912.73 107.76L912.73 32.76zM1042.64 332.76L1107.59 370.26L1107.59 445.26L1042.64 482.76L977.68 445.26L977.68 370.26zM1042.64 557.76L1107.59 595.26L1107.59 670.26L1042.64 707.76L977.68 670.26L977.68 595.26zM1107.59 -4.74L1172.54 32.76L1172.54 107.76L1107.59 145.26L1042.64 107.76L1042.64 32.76zM1172.54 107.76L1237.5 145.26L1237.5 220.26L1172.54 257.76L1107.59 220.26L1107.59 145.26zM1107.59 445.26L1172.54 482.76L1172.54 557.76L1107.59 595.26L1042.64 557.76L1042.64 482.76zM1302.45 332.76L1367.4 370.26L1367.4 445.26L1302.45 482.76L1237.5 445.26L1237.5 370.26zM1302.45 557.76L1367.4 595.26L1367.4 670.26L1302.45 707.76L1237.5 670.26L1237.5 595.26zM1367.4 -4.74L1432.36 32.76L1432.36 107.76L1367.4 145.26L1302.45 107.76L1302.45 32.76zM1432.36 107.76L1497.31 145.26L1497.31 220.26L1432.36 257.76L1367.4 220.26L1367.4 145.26zM1367.4 220.26L1432.36 257.76L1432.36 332.76L1367.4 370.26L1302.45 332.76L1302.45 257.76zM1497.31 -4.74L1562.27 32.76L1562.27 107.76L1497.31 145.26L1432.36 107.76L1432.36 32.76zM1562.27 107.76L1627.22 145.26L1627.22 220.26L1562.27 257.76L1497.31 220.26L1497.31 145.26zM1497.31 445.26L1562.27 482.76L1562.27 557.76L1497.31 595.26L1432.36 557.76L1432.36 482.76zM1562.27 557.76L1627.22 595.26L1627.22 670.26L1562.27 707.76L1497.31 670.26L1497.31 595.26z"
       stroke="#03305d"
       stroke-width="2"
       id="path33" />
    <path
       d="M60.83 -4.74 a7.5 7.5 0 1 0 15 0 a7.5 7.5 0 1 0 -15 0zM125.78 32.76 a7.5 7.5 0 1 0 15 0 a7.5 7.5 0 1 0 -15 0zM125.78 107.76 a7.5 7.5 0 1 0 15 0 a7.5 7.5 0 1 0 -15 0zM60.83 145.26 a7.5 7.5 0 1 0 15 0 a7.5 7.5 0 1 0 -15 0zM-4.12 107.76 a7.5 7.5 0 1 0 15 0 a7.5 7.5 0 1 0 -15 0zM-4.12 32.76 a7.5 7.5 0 1 0 15 0 a7.5 7.5 0 1 0 -15 0zM125.78 332.76 a7.5 7.5 0 1 0 15 0 a7.5 7.5 0 1 0 -15 0zM190.74 370.26 a7.5 7.5 0 1 0 15 0 a7.5 7.5 0 1 0 -15 0zM190.74 445.26 a7.5 7.5 0 1 0 15 0 a7.5 7.5 0 1 0 -15 0zM125.78 482.76 a7.5 7.5 0 1 0 15 0 a7.5 7.5 0 1 0 -15 0zM60.83 445.26 a7.5 7.5 0 1 0 15 0 a7.5 7.5 0 1 0 -15 0zM60.83 370.26 a7.5 7.5 0 1 0 15 0 a7.5 7.5 0 1 0 -15 0zM255.69 107.76 a7.5 7.5 0 1 0 15 0 a7.5 7.5 0 1 0 -15 0zM320.64 145.26 a7.5 7.5 0 1 0 15 0 a7.5 7.5 0 1 0 -15 0zM320.64 220.26 a7.5 7.5 0 1 0 15 0 a7.5 7.5 0 1 0 -15 0zM255.69 257.76 a7.5 7.5 0 1 0 15 0 a7.5 7.5 0 1 0 -15 0zM190.74 220.26 a7.5 7.5 0 1 0 15 0 a7.5 7.5 0 1 0 -15 0zM190.74 145.26 a7.5 7.5 0 1 0 15 0 a7.5 7.5 0 1 0 -15 0zM255.69 332.76 a7.5 7.5 0 1 0 15 0 a7.5 7.5 0 1 0 -15 0zM125.78 257.76 a7.5 7.5 0 1 0 15 0 a7.5 7.5 0 1 0 -15 0zM255.69 482.76 a7.5 7.5 0 1 0 15 0 a7.5 7.5 0 1 0 -15 0zM255.69 557.76 a7.5 7.5 0 1 0 15 0 a7.5 7.5 0 1 0 -15 0zM190.74 595.26 a7.5 7.5 0 1 0 15 0 a7.5 7.5 0 1 0 -15 0zM125.78 557.76 a7.5 7.5 0 1 0 15 0 a7.5 7.5 0 1 0 -15 0zM320.64 445.26 a7.5 7.5 0 1 0 15 0 a7.5 7.5 0 1 0 -15 0zM385.6 482.76 a7.5 7.5 0 1 0 15 0 a7.5 7.5 0 1 0 -15 0zM385.6 557.76 a7.5 7.5 0 1 0 15 0 a7.5 7.5 0 1 0 -15 0zM320.64 595.26 a7.5 7.5 0 1 0 15 0 a7.5 7.5 0 1 0 -15 0zM450.55 595.26 a7.5 7.5 0 1 0 15 0 a7.5 7.5 0 1 0 -15 0zM450.55 670.26 a7.5 7.5 0 1 0 15 0 a7.5 7.5 0 1 0 -15 0zM385.6 707.76 a7.5 7.5 0 1 0 15 0 a7.5 7.5 0 1 0 -15 0zM320.64 670.26 a7.5 7.5 0 1 0 15 0 a7.5 7.5 0 1 0 -15 0zM450.55 -4.74 a7.5 7.5 0 1 0 15 0 a7.5 7.5 0 1 0 -15 0zM515.51 32.76 a7.5 7.5 0 1 0 15 0 a7.5 7.5 0 1 0 -15 0zM515.51 107.76 a7.5 7.5 0 1 0 15 0 a7.5 7.5 0 1 0 -15 0zM450.55 145.26 a7.5 7.5 0 1 0 15 0 a7.5 7.5 0 1 0 -15 0zM385.6 107.76 a7.5 7.5 0 1 0 15 0 a7.5 7.5 0 1 0 -15 0zM385.6 32.76 a7.5 7.5 0 1 0 15 0 a7.5 7.5 0 1 0 -15 0zM450.55 220.26 a7.5 7.5 0 1 0 15 0 a7.5 7.5 0 1 0 -15 0zM515.51 257.76 a7.5 7.5 0 1 0 15 0 a7.5 7.5 0 1 0 -15 0zM515.51 332.76 a7.5 7.5 0 1 0 15 0 a7.5 7.5 0 1 0 -15 0zM450.55 370.26 a7.5 7.5 0 1 0 15 0 a7.5 7.5 0 1 0 -15 0zM385.6 332.76 a7.5 7.5 0 1 0 15 0 a7.5 7.5 0 1 0 -15 0zM385.6 257.76 a7.5 7.5 0 1 0 15 0 a7.5 7.5 0 1 0 -15 0zM645.41 107.76 a7.5 7.5 0 1 0 15 0 a7.5 7.5 0 1 0 -15 0zM710.37 145.26 a7.5 7.5 0 1 0 15 0 a7.5 7.5 0 1 0 -15 0zM710.37 220.26 a7.5 7.5 0 1 0 15 0 a7.5 7.5 0 1 0 -15 0zM645.41 257.76 a7.5 7.5 0 1 0 15 0 a7.5 7.5 0 1 0 -15 0zM580.46 220.26 a7.5 7.5 0 1 0 15 0 a7.5 7.5 0 1 0 -15 0zM580.46 145.26 a7.5 7.5 0 1 0 15 0 a7.5 7.5 0 1 0 -15 0zM645.41 332.76 a7.5 7.5 0 1 0 15 0 a7.5 7.5 0 1 0 -15 0zM580.46 370.26 a7.5 7.5 0 1 0 15 0 a7.5 7.5 0 1 0 -15 0zM775.32 107.76 a7.5 7.5 0 1 0 15 0 a7.5 7.5 0 1 0 -15 0zM840.28 145.26 a7.5 7.5 0 1 0 15 0 a7.5 7.5 0 1 0 -15 0zM840.28 220.26 a7.5 7.5 0 1 0 15 0 a7.5 7.5 0 1 0 -15 0zM775.32 257.76 a7.5 7.5 0 1 0 15 0 a7.5 7.5 0 1 0 -15 0zM905.23 107.76 a7.5 7.5 0 1 0 15 0 a7.5 7.5 0 1 0 -15 0zM970.18 145.26 a7.5 7.5 0 1 0 15 0 a7.5 7.5 0 1 0 -15 0zM970.18 220.26 a7.5 7.5 0 1 0 15 0 a7.5 7.5 0 1 0 -15 0zM905.23 257.76 a7.5 7.5 0 1 0 15 0 a7.5 7.5 0 1 0 -15 0zM840.27 220.26 a7.5 7.5 0 1 0 15 0 a7.5 7.5 0 1 0 -15 0zM840.27 145.26 a7.5 7.5 0 1 0 15 0 a7.5 7.5 0 1 0 -15 0zM905.23 332.76 a7.5 7.5 0 1 0 15 0 a7.5 7.5 0 1 0 -15 0zM840.27 370.26 a7.5 7.5 0 1 0 15 0 a7.5 7.5 0 1 0 -15 0zM775.32 332.76 a7.5 7.5 0 1 0 15 0 a7.5 7.5 0 1 0 -15 0zM840.27 445.26 a7.5 7.5 0 1 0 15 0 a7.5 7.5 0 1 0 -15 0zM905.23 482.76 a7.5 7.5 0 1 0 15 0 a7.5 7.5 0 1 0 -15 0zM905.23 557.76 a7.5 7.5 0 1 0 15 0 a7.5 7.5 0 1 0 -15 0zM840.27 595.26 a7.5 7.5 0 1 0 15 0 a7.5 7.5 0 1 0 -15 0zM775.32 557.76 a7.5 7.5 0 1 0 15 0 a7.5 7.5 0 1 0 -15 0zM775.32 482.76 a7.5 7.5 0 1 0 15 0 a7.5 7.5 0 1 0 -15 0zM970.18 595.26 a7.5 7.5 0 1 0 15 0 a7.5 7.5 0 1 0 -15 0zM970.18 670.26 a7.5 7.5 0 1 0 15 0 a7.5 7.5 0 1 0 -15 0zM905.23 707.76 a7.5 7.5 0 1 0 15 0 a7.5 7.5 0 1 0 -15 0zM840.27 670.26 a7.5 7.5 0 1 0 15 0 a7.5 7.5 0 1 0 -15 0zM970.18 -4.74 a7.5 7.5 0 1 0 15 0 a7.5 7.5 0 1 0 -15 0zM1035.14 32.76 a7.5 7.5 0 1 0 15 0 a7.5 7.5 0 1 0 -15 0zM1035.14 107.76 a7.5 7.5 0 1 0 15 0 a7.5 7.5 0 1 0 -15 0zM905.23 32.76 a7.5 7.5 0 1 0 15 0 a7.5 7.5 0 1 0 -15 0zM1035.14 332.76 a7.5 7.5 0 1 0 15 0 a7.5 7.5 0 1 0 -15 0zM1100.09 370.26 a7.5 7.5 0 1 0 15 0 a7.5 7.5 0 1 0 -15 0zM1100.09 445.26 a7.5 7.5 0 1 0 15 0 a7.5 7.5 0 1 0 -15 0zM1035.14 482.76 a7.5 7.5 0 1 0 15 0 a7.5 7.5 0 1 0 -15 0zM970.18 445.26 a7.5 7.5 0 1 0 15 0 a7.5 7.5 0 1 0 -15 0zM970.18 370.26 a7.5 7.5 0 1 0 15 0 a7.5 7.5 0 1 0 -15 0zM1035.14 557.76 a7.5 7.5 0 1 0 15 0 a7.5 7.5 0 1 0 -15 0zM1100.09 595.26 a7.5 7.5 0 1 0 15 0 a7.5 7.5 0 1 0 -15 0zM1100.09 670.26 a7.5 7.5 0 1 0 15 0 a7.5 7.5 0 1 0 -15 0zM1035.14 707.76 a7.5 7.5 0 1 0 15 0 a7.5 7.5 0 1 0 -15 0zM1100.09 -4.74 a7.5 7.5 0 1 0 15 0 a7.5 7.5 0 1 0 -15 0zM1165.04 32.76 a7.5 7.5 0 1 0 15 0 a7.5 7.5 0 1 0 -15 0zM1165.04 107.76 a7.5 7.5 0 1 0 15 0 a7.5 7.5 0 1 0 -15 0zM1100.09 145.26 a7.5 7.5 0 1 0 15 0 a7.5 7.5 0 1 0 -15 0zM1230 145.26 a7.5 7.5 0 1 0 15 0 a7.5 7.5 0 1 0 -15 0zM1230 220.26 a7.5 7.5 0 1 0 15 0 a7.5 7.5 0 1 0 -15 0zM1165.04 257.76 a7.5 7.5 0 1 0 15 0 a7.5 7.5 0 1 0 -15 0zM1100.09 220.26 a7.5 7.5 0 1 0 15 0 a7.5 7.5 0 1 0 -15 0zM1165.04 482.76 a7.5 7.5 0 1 0 15 0 a7.5 7.5 0 1 0 -15 0zM1165.04 557.76 a7.5 7.5 0 1 0 15 0 a7.5 7.5 0 1 0 -15 0zM1294.95 332.76 a7.5 7.5 0 1 0 15 0 a7.5 7.5 0 1 0 -15 0zM1359.9 370.26 a7.5 7.5 0 1 0 15 0 a7.5 7.5 0 1 0 -15 0zM1359.9 445.26 a7.5 7.5 0 1 0 15 0 a7.5 7.5 0 1 0 -15 0zM1294.95 482.76 a7.5 7.5 0 1 0 15 0 a7.5 7.5 0 1 0 -15 0zM1230 445.26 a7.5 7.5 0 1 0 15 0 a7.5 7.5 0 1 0 -15 0zM1230 370.26 a7.5 7.5 0 1 0 15 0 a7.5 7.5 0 1 0 -15 0zM1294.95 557.76 a7.5 7.5 0 1 0 15 0 a7.5 7.5 0 1 0 -15 0zM1359.9 595.26 a7.5 7.5 0 1 0 15 0 a7.5 7.5 0 1 0 -15 0zM1359.9 670.26 a7.5 7.5 0 1 0 15 0 a7.5 7.5 0 1 0 -15 0zM1294.95 707.76 a7.5 7.5 0 1 0 15 0 a7.5 7.5 0 1 0 -15 0zM1230 670.26 a7.5 7.5 0 1 0 15 0 a7.5 7.5 0 1 0 -15 0zM1230 595.26 a7.5 7.5 0 1 0 15 0 a7.5 7.5 0 1 0 -15 0zM1359.9 -4.74 a7.5 7.5 0 1 0 15 0 a7.5 7.5 0 1 0 -15 0zM1424.86 32.76 a7.5 7.5 0 1 0 15 0 a7.5 7.5 0 1 0 -15 0zM1424.86 107.76 a7.5 7.5 0 1 0 15 0 a7.5 7.5 0 1 0 -15 0zM1359.9 145.26 a7.5 7.5 0 1 0 15 0 a7.5 7.5 0 1 0 -15 0zM1294.95 107.76 a7.5 7.5 0 1 0 15 0 a7.5 7.5 0 1 0 -15 0zM1294.95 32.76 a7.5 7.5 0 1 0 15 0 a7.5 7.5 0 1 0 -15 0zM1489.81 145.26 a7.5 7.5 0 1 0 15 0 a7.5 7.5 0 1 0 -15 0zM1489.81 220.26 a7.5 7.5 0 1 0 15 0 a7.5 7.5 0 1 0 -15 0zM1424.86 257.76 a7.5 7.5 0 1 0 15 0 a7.5 7.5 0 1 0 -15 0zM1359.9 220.26 a7.5 7.5 0 1 0 15 0 a7.5 7.5 0 1 0 -15 0zM1424.86 332.76 a7.5 7.5 0 1 0 15 0 a7.5 7.5 0 1 0 -15 0zM1294.95 257.76 a7.5 7.5 0 1 0 15 0 a7.5 7.5 0 1 0 -15 0zM1489.81 -4.74 a7.5 7.5 0 1 0 15 0 a7.5 7.5 0 1 0 -15 0zM1554.77 32.76 a7.5 7.5 0 1 0 15 0 a7.5 7.5 0 1 0 -15 0zM1554.77 107.76 a7.5 7.5 0 1 0 15 0 a7.5 7.5 0 1 0 -15 0zM1619.72 145.26 a7.5 7.5 0 1 0 15 0 a7.5 7.5 0 1 0 -15 0zM1619.72 220.26 a7.5 7.5 0 1 0 15 0 a7.5 7.5 0 1 0 -15 0zM1554.77 257.76 a7.5 7.5 0 1 0 15 0 a7.5 7.5 0 1 0 -15 0zM1489.81 445.26 a7.5 7.5 0 1 0 15 0 a7.5 7.5 0 1 0 -15 0zM1554.77 482.76 a7.5 7.5 0 1 0 15 0 a7.5 7.5 0 1 0 -15 0zM1554.77 557.76 a7.5 7.5 0 1 0 15 0 a7.5 7.5 0 1 0 -15 0zM1489.81 595.26 a7.5 7.5 0 1 0 15 0 a7.5 7.5 0 1 0 -15 0zM1424.86 557.76 a7.5 7.5 0 1 0 15 0 a7.5 7.5 0 1 0 -15 0zM1424.86 482.76 a7.5 7.5 0 1 0 15 0 a7.5 7.5 0 1 0 -15 0zM1619.72 595.26 a7.5 7.5 0 1 0 15 0 a7.5 7.5 0 1 0 -15 0zM1619.72 670.26 a7.5 7.5 0 1 0 15 0 a7.5 7.5 0 1 0 -15 0zM1554.77 707.76 a7.5 7.5 0 1 0 15 0 a7.5 7.5 0 1 0 -15 0zM1489.81 670.26 a7.5 7.5 0 1 0 15 0 a7.5 7.5 0 1 0 -15 0z"
       fill="#03305d"
       id="path35" />
    <path
       d="M66.76 199.48L110.06 224.48L110.06 274.48L66.76 299.48L23.46 274.48L23.46 224.48zM66.76 349.48L110.06 374.48L110.06 424.48L66.76 449.48L23.46 424.48L23.46 374.48zM110.06 -25.52L153.37 -0.52L153.37 49.48L110.06 74.48L66.76 49.48L66.76 -0.52zM110.06 124.48L153.37 149.48L153.37 199.48L110.06 224.48L66.76 199.48L66.76 149.48zM326.58 199.48L369.88 224.48L369.88 274.48L326.58 299.48L283.27 274.48L283.27 224.48zM283.27 274.48L326.58 299.48L326.58 349.48L283.27 374.48L239.97 349.48L239.97 299.48zM369.88 274.48L413.18 299.48L413.18 349.48L369.88 374.48L326.58 349.48L326.58 299.48zM413.18 499.48L456.49 524.48L456.49 574.48L413.18 599.48L369.88 574.48L369.88 524.48zM456.49 -25.52L499.79 -0.52L499.79 49.48L456.49 74.48L413.18 49.48L413.18 -0.52zM586.39 199.48L629.7 224.48L629.7 274.48L586.39 299.48L543.09 274.48L543.09 224.48zM543.09 274.48L586.39 299.48L586.39 349.48L543.09 374.48L499.79 349.48L499.79 299.48zM629.7 -25.52L673 -0.52L673 49.48L629.7 74.48L586.39 49.48L586.39 -0.52zM673 49.48L716.3 74.48L716.3 124.48L673 149.48L629.7 124.48L629.7 74.48zM802.91 124.48L846.21 149.48L846.21 199.48L802.91 224.48L759.6 199.48L759.6 149.48zM932.81 199.48L976.12 224.48L976.12 274.48L932.81 299.48L889.51 274.48L889.51 224.48zM889.51 274.48L932.81 299.48L932.81 349.48L889.51 374.48L846.21 349.48L846.21 299.48zM1019.42 49.48L1062.72 74.48L1062.72 124.48L1019.42 149.48L976.12 124.48L976.12 74.48zM1062.72 124.48L1106.02 149.48L1106.02 199.48L1062.72 224.48L1019.42 199.48L1019.42 149.48zM1279.23 49.48L1322.54 74.48L1322.54 124.48L1279.23 149.48L1235.93 124.48L1235.93 74.48zM1365.84 349.48L1409.14 374.48L1409.14 424.48L1365.84 449.48L1322.54 424.48L1322.54 374.48z"
       stroke="rgba(6, 80, 156, 0.93)"
       stroke-width="2"
       id="path37" />
  </g>
  <defs
     id="defs44">
    <mask
       id="SvgjsMask1000">
      <rect
         width="1440"
         height="560"
         fill="#ffffff"
         id="rect41" />
    </mask>
  </defs>
</svg>
