<svg xmlns="http://www.w3.org/2000/svg" version="1.1" xmlns:xlink="http://www.w3.org/1999/xlink" xmlns:svgjs="http://svgjs.com/svgjs" width="1440" height="560" preserveAspectRatio="none" viewBox="0 0 1440 560"><g mask="url(&quot;#SvgjsMask1003&quot;)" fill="none"><rect width="1440" height="560" x="0" y="0" fill="rgba(15, 15, 15, 1)"></rect><path d="M71.02 77.49L135.98 114.99L135.98 189.99L71.02 227.49L6.07 189.99L6.07 114.99zM71.02 302.49L135.98 339.99L135.98 414.99L71.02 452.49L6.07 414.99L6.07 339.99zM395.79 414.99L460.75 452.49L460.75 527.49L395.79 564.99L330.84 527.49L330.84 452.49zM525.7 414.99L590.65 452.49L590.65 527.49L525.7 564.99L460.75 527.49L460.75 452.49zM785.51 189.99L850.47 227.49L850.47 302.49L785.51 339.99L720.56 302.49L720.56 227.49zM915.42 189.99L980.38 227.49L980.38 302.49L915.42 339.99L850.47 302.49L850.47 227.49zM1110.28 302.49L1175.24 339.99L1175.24 414.99L1110.28 452.49L1045.33 414.99L1045.33 339.99zM1370.1 302.49L1435.05 339.99L1435.05 414.99L1370.1 452.49L1305.14 414.99L1305.14 339.99zM1370.1 527.49L1435.05 564.99L1435.05 639.99L1370.1 677.49L1305.14 639.99L1305.14 564.99z" stroke="rgba(3, 85, 167, 1)" stroke-width="2"></path><path d="M63.52 77.49 a7.5 7.5 0 1 0 15 0 a7.5 7.5 0 1 0 -15 0zM128.48 114.99 a7.5 7.5 0 1 0 15 0 a7.5 7.5 0 1 0 -15 0zM128.48 189.99 a7.5 7.5 0 1 0 15 0 a7.5 7.5 0 1 0 -15 0zM63.52 227.49 a7.5 7.5 0 1 0 15 0 a7.5 7.5 0 1 0 -15 0zM-1.43 189.99 a7.5 7.5 0 1 0 15 0 a7.5 7.5 0 1 0 -15 0zM-1.43 114.99 a7.5 7.5 0 1 0 15 0 a7.5 7.5 0 1 0 -15 0zM63.52 302.49 a7.5 7.5 0 1 0 15 0 a7.5 7.5 0 1 0 -15 0zM128.48 339.99 a7.5 7.5 0 1 0 15 0 a7.5 7.5 0 1 0 -15 0zM128.48 414.99 a7.5 7.5 0 1 0 15 0 a7.5 7.5 0 1 0 -15 0zM63.52 452.49 a7.5 7.5 0 1 0 15 0 a7.5 7.5 0 1 0 -15 0zM-1.43 414.99 a7.5 7.5 0 1 0 15 0 a7.5 7.5 0 1 0 -15 0zM-1.43 339.99 a7.5 7.5 0 1 0 15 0 a7.5 7.5 0 1 0 -15 0zM388.29 414.99 a7.5 7.5 0 1 0 15 0 a7.5 7.5 0 1 0 -15 0zM453.25 452.49 a7.5 7.5 0 1 0 15 0 a7.5 7.5 0 1 0 -15 0zM453.25 527.49 a7.5 7.5 0 1 0 15 0 a7.5 7.5 0 1 0 -15 0zM388.29 564.99 a7.5 7.5 0 1 0 15 0 a7.5 7.5 0 1 0 -15 0zM323.34 527.49 a7.5 7.5 0 1 0 15 0 a7.5 7.5 0 1 0 -15 0zM323.34 452.49 a7.5 7.5 0 1 0 15 0 a7.5 7.5 0 1 0 -15 0zM518.2 414.99 a7.5 7.5 0 1 0 15 0 a7.5 7.5 0 1 0 -15 0zM583.15 452.49 a7.5 7.5 0 1 0 15 0 a7.5 7.5 0 1 0 -15 0zM583.15 527.49 a7.5 7.5 0 1 0 15 0 a7.5 7.5 0 1 0 -15 0zM518.2 564.99 a7.5 7.5 0 1 0 15 0 a7.5 7.5 0 1 0 -15 0zM778.01 189.99 a7.5 7.5 0 1 0 15 0 a7.5 7.5 0 1 0 -15 0zM842.97 227.49 a7.5 7.5 0 1 0 15 0 a7.5 7.5 0 1 0 -15 0zM842.97 302.49 a7.5 7.5 0 1 0 15 0 a7.5 7.5 0 1 0 -15 0zM778.01 339.99 a7.5 7.5 0 1 0 15 0 a7.5 7.5 0 1 0 -15 0zM713.06 302.49 a7.5 7.5 0 1 0 15 0 a7.5 7.5 0 1 0 -15 0zM713.06 227.49 a7.5 7.5 0 1 0 15 0 a7.5 7.5 0 1 0 -15 0zM907.92 189.99 a7.5 7.5 0 1 0 15 0 a7.5 7.5 0 1 0 -15 0zM972.88 227.49 a7.5 7.5 0 1 0 15 0 a7.5 7.5 0 1 0 -15 0zM972.88 302.49 a7.5 7.5 0 1 0 15 0 a7.5 7.5 0 1 0 -15 0zM907.92 339.99 a7.5 7.5 0 1 0 15 0 a7.5 7.5 0 1 0 -15 0zM1102.78 302.49 a7.5 7.5 0 1 0 15 0 a7.5 7.5 0 1 0 -15 0zM1167.74 339.99 a7.5 7.5 0 1 0 15 0 a7.5 7.5 0 1 0 -15 0zM1167.74 414.99 a7.5 7.5 0 1 0 15 0 a7.5 7.5 0 1 0 -15 0zM1102.78 452.49 a7.5 7.5 0 1 0 15 0 a7.5 7.5 0 1 0 -15 0zM1037.83 414.99 a7.5 7.5 0 1 0 15 0 a7.5 7.5 0 1 0 -15 0zM1037.83 339.99 a7.5 7.5 0 1 0 15 0 a7.5 7.5 0 1 0 -15 0zM1362.6 302.49 a7.5 7.5 0 1 0 15 0 a7.5 7.5 0 1 0 -15 0zM1427.55 339.99 a7.5 7.5 0 1 0 15 0 a7.5 7.5 0 1 0 -15 0zM1427.55 414.99 a7.5 7.5 0 1 0 15 0 a7.5 7.5 0 1 0 -15 0zM1362.6 452.49 a7.5 7.5 0 1 0 15 0 a7.5 7.5 0 1 0 -15 0zM1297.64 414.99 a7.5 7.5 0 1 0 15 0 a7.5 7.5 0 1 0 -15 0zM1297.64 339.99 a7.5 7.5 0 1 0 15 0 a7.5 7.5 0 1 0 -15 0zM1362.6 527.49 a7.5 7.5 0 1 0 15 0 a7.5 7.5 0 1 0 -15 0zM1427.55 564.99 a7.5 7.5 0 1 0 15 0 a7.5 7.5 0 1 0 -15 0zM1427.55 639.99 a7.5 7.5 0 1 0 15 0 a7.5 7.5 0 1 0 -15 0zM1362.6 677.49 a7.5 7.5 0 1 0 15 0 a7.5 7.5 0 1 0 -15 0zM1297.64 639.99 a7.5 7.5 0 1 0 15 0 a7.5 7.5 0 1 0 -15 0zM1297.64 564.99 a7.5 7.5 0 1 0 15 0 a7.5 7.5 0 1 0 -15 0z" fill="rgba(3, 85, 167, 1)"></path><path d="M22.98 -44.16L66.28 -19.16L66.28 30.84L22.98 55.84L-20.32 30.84L-20.32 -19.16zM66.28 30.84L109.59 55.84L109.59 105.84L66.28 130.84L22.98 105.84L22.98 55.84zM66.28 480.84L109.59 505.84L109.59 555.84L66.28 580.84L22.98 555.84L22.98 505.84zM152.89 30.84L196.19 55.84L196.19 105.84L152.89 130.84L109.59 105.84L109.59 55.84zM152.89 330.84L196.19 355.84L196.19 405.84L152.89 430.84L109.59 405.84L109.59 355.84zM196.19 105.84L239.49 130.84L239.49 180.84L196.19 205.84L152.89 180.84L152.89 130.84zM239.49 180.84L282.8 205.84L282.8 255.84L239.49 280.84L196.19 255.84L196.19 205.84zM369.4 -44.16L412.7 -19.16L412.7 30.84L369.4 55.84L326.1 30.84L326.1 -19.16zM369.4 105.84L412.7 130.84L412.7 180.84L369.4 205.84L326.1 180.84L326.1 130.84zM369.4 255.84L412.7 280.84L412.7 330.84L369.4 355.84L326.1 330.84L326.1 280.84zM456.01 -44.16L499.31 -19.16L499.31 30.84L456.01 55.84L412.7 30.84L412.7 -19.16zM542.61 105.84L585.91 130.84L585.91 180.84L542.61 205.84L499.31 180.84L499.31 130.84zM585.91 180.84L629.22 205.84L629.22 255.84L585.91 280.84L542.61 255.84L542.61 205.84zM759.12 180.84L802.43 205.84L802.43 255.84L759.12 280.84L715.82 255.84L715.82 205.84zM715.82 405.84L759.12 430.84L759.12 480.84L715.82 505.84L672.52 480.84L672.52 430.84zM802.43 405.84L845.73 430.84L845.73 480.84L802.43 505.84L759.12 480.84L759.12 430.84zM889.03 405.84L932.33 430.84L932.33 480.84L889.03 505.84L845.73 480.84L845.73 430.84zM975.64 -44.16L1018.94 -19.16L1018.94 30.84L975.64 55.84L932.33 30.84L932.33 -19.16zM1018.94 30.84L1062.24 55.84L1062.24 105.84L1018.94 130.84L975.64 105.84L975.64 55.84zM1062.24 405.84L1105.54 430.84L1105.54 480.84L1062.24 505.84L1018.94 480.84L1018.94 430.84zM1105.54 480.84L1148.85 505.84L1148.85 555.84L1105.54 580.84L1062.24 555.84L1062.24 505.84zM1192.15 30.84L1235.45 55.84L1235.45 105.84L1192.15 130.84L1148.85 105.84L1148.85 55.84zM1235.45 105.84L1278.75 130.84L1278.75 180.84L1235.45 205.84L1192.15 180.84L1192.15 130.84zM1278.75 330.84L1322.06 355.84L1322.06 405.84L1278.75 430.84L1235.45 405.84L1235.45 355.84zM1235.45 405.84L1278.75 430.84L1278.75 480.84L1235.45 505.84L1192.15 480.84L1192.15 430.84zM1408.66 105.84L1451.96 130.84L1451.96 180.84L1408.66 205.84L1365.36 180.84L1365.36 130.84zM1451.96 180.84L1495.27 205.84L1495.27 255.84L1451.96 280.84L1408.66 255.84L1408.66 205.84zM1408.66 405.84L1451.96 430.84L1451.96 480.84L1408.66 505.84L1365.36 480.84L1365.36 430.84z" stroke="rgba(6, 80, 156, 0.93)" stroke-width="2"></path></g><defs><mask id="SvgjsMask1003"><rect width="1440" height="560" fill="#ffffff"></rect></mask></defs></svg>