<?xml version="1.0" encoding="UTF-8" standalone="no"?>
<svg
   xmlns:dc="http://purl.org/dc/elements/1.1/"
   xmlns:cc="http://creativecommons.org/ns#"
   xmlns:rdf="http://www.w3.org/1999/02/22-rdf-syntax-ns#"
   xmlns:svg="http://www.w3.org/2000/svg"
   xmlns="http://www.w3.org/2000/svg"
   xmlns:sodipodi="http://sodipodi.sourceforge.net/DTD/sodipodi-0.dtd"
   xmlns:inkscape="http://www.inkscape.org/namespaces/inkscape"
   inkscape:version="1.0 (4035a4fb49, 2020-05-01)"
   sodipodi:docname="JunTechPC-Aruba-User-Experience-Design.svg"
   id="svg448"
   version="1.1"
   width="512"
   viewBox="0 0 60 60"
   height="512">
  <metadata
     id="metadata454">
    <rdf:RDF>
      <cc:Work
         rdf:about="">
        <dc:format>image/svg+xml</dc:format>
        <dc:type
           rdf:resource="http://purl.org/dc/dcmitype/StillImage" />
        <dc:title></dc:title>
      </cc:Work>
    </rdf:RDF>
  </metadata>
  <defs
     id="defs452" />
  <sodipodi:namedview
     inkscape:current-layer="svg448"
     inkscape:window-maximized="1"
     inkscape:window-y="-9"
     inkscape:window-x="-9"
     inkscape:cy="256"
     inkscape:cx="256"
     inkscape:zoom="1.5644531"
     showgrid="false"
     id="namedview450"
     inkscape:window-height="1001"
     inkscape:window-width="1920"
     inkscape:pageshadow="2"
     inkscape:pageopacity="0"
     guidetolerance="10"
     gridtolerance="10"
     objecttolerance="10"
     borderopacity="1"
     bordercolor="#666666"
     pagecolor="#ffffff" />
  <g
     fill-rule="evenodd"
     fill="none"
     id="Page-1">
    <g
       fill-rule="nonzero"
       id="027---Good-User-Experience">
      <circle
         r="13"
         fill="#cad9fc"
         cy="46"
         cx="46"
         id="Oval" />
      <path
         fill="#a4c2f7"
         d="m44.528 33.089c6.5388424.7849355 11.4577129 6.3356509 11.4505705 12.9214335s-4.9380409 12.1258158-11.4785705 12.8965665c4.9772017.5980541 9.8547875-1.7189583 12.5356995-5.9548662s2.6873958-9.6358475.0166637-13.8781813c-2.6707321-4.2423337-7.5427397-6.5710525-12.5213632-5.9849525z"
         id="Shape" />
      <path
         fill="#e8edfc"
         d="m49 4v9h-48v-9c0-1.65685425 1.34314575-3 3-3h42c1.6568542 0 3 1.34314575 3 3z"
         id="path383" />
      <path
         fill="#cad9fc"
         d="m46 1h-3c1.6568542 0 3 1.34314575 3 3v9h3v-9c0-1.65685425-1.3431458-3-3-3z"
         id="path385" />
      <path
         fill="#fff"
         d="m49 13v20.35c-5.6096678-1.33369-11.4272978 1.1889045-14.2878007 6.1953628-2.860503 5.0064583-2.0796232 11.2991945 1.9178007 15.4546372h-32.63c-1.65685425 0-3-1.3431458-3-3v-39z"
         id="path387" />
      <path
         fill="#e8edfc"
         d="m44.528 33.089c-3.6878048-.4335744-7.3851261.7294184-10.1606736 3.196041-2.7755476 2.4666227-4.3647541 6.0017549-4.3673264 9.714959-.0070374 3.3580233 1.295133 6.5865448 3.63 9h3c-3.4280189-3.5616415-4.5367882-8.7605749-2.860121-13.4108857s5.8479914-7.9455091 10.760121-8.5001143z"
         id="path389" />
      <path
         fill="#e8edfc"
         d="m46 13v20c1.0102551-.0012074 2.0171549.1162642 3 .35v-20.35z"
         id="path391" />
      <circle
         r="2"
         fill="#e8edfc"
         cy="7"
         cx="7"
         id="circle393" />
      <circle
         r="2"
         fill="#e8edfc"
         cy="7"
         cx="15"
         id="circle395" />
      <rect
         y="5"
         x="31"
         width="14"
         rx="2"
         height="4"
         fill="#e8edfc"
         id="Rectangle-path" />
      <rect
         y="31"
         x="5"
         width="12"
         rx="2"
         height="10"
         fill="#e8edfc"
         id="rect398" />
      <path
         fill="#cad9fc"
         d="m15 31h-3c1.1045695 0 2 .8954305 2 2v6c0 1.1045695-.8954305 2-2 2h3c1.1045695 0 2-.8954305 2-2v-6c0-1.1045695-.8954305-2-2-2z"
         id="path400" />
      <circle
         r="3"
         fill="#fff"
         cy="43"
         cx="41"
         id="circle402" />
      <circle
         r="3"
         fill="#fff"
         cy="43"
         cx="51"
         id="circle404" />
      <path
         fill="#e8edfc"
         d="m43 50h6c.5522847 0 1 .4477153 1 1 0 2.209139-1.790861 4-4 4s-4-1.790861-4-4c0-.5522847.4477153-1 1-1z"
         id="path406" />
      <path
         fill="#fff"
         d="m1 52c0 1.6568542 1.34314575 3 3 3h3c-1.65685425 0-3-1.3431458-3-3v-48c0-1.65685425 1.34314575-3 3-3h-3c-1.65685425 0-3 1.34314575-3 3z"
         id="path408" />
      <path
         fill="#fff"
         d="m0 44h2v8h-2z"
         id="path410" />
      <g
         id="g444"
         fill="#428dff">
        <path
           d="m50 32.59v-28.59c0-2.209139-1.790861-4-4-4h-42c-2.209139 0-4 1.790861-4 4v40c0 .5522847.44771525 1 1 1s1-.4477153 1-1v-30h46v18.16c-5.519068-.8092512-10.9906948 1.7415133-13.9193545 6.4889286-2.9286596 4.7474154-2.7532 10.7818427.4463545 15.3510714h-30.527c-1.1045695 0-2-.8954305-2-2 0-.5522847-.44771525-1-1-1s-1 .4477153-1 1c0 2.209139 1.790861 4 4 4h32.221c4.1570974 4.0687147 10.3978914 5.1410662 15.6746987 2.693373 5.2768074-2.4476931 8.4888446-7.9048228 8.0675176-13.7064072s-4.3881261-10.7373673-9.9632163-12.3969658zm-48-20.59v-8c0-1.1045695.8954305-2 2-2h42c1.1045695 0 2 .8954305 2 2v8zm44 46c-6.627417 0-12-5.372583-12-12s5.372583-12 12-12 12 5.372583 12 12c-.0071648 6.624447-5.375553 11.9928352-12 12z"
           id="path412" />
        <path
           d="m1.02 49c-.55228475.0027614-1.00223858-.4427153-1.005-.995s.44271525-1.0022386.995-1.005h.01c.55228475 0 1 .4477153 1 1s-.44771525 1-1 1z"
           id="path414" />
        <path
           d="m7 4c-1.65685425 0-3 1.34314575-3 3s1.34314575 3 3 3 3-1.34314575 3-3-1.34314575-3-3-3zm0 4c-.55228475 0-1-.44771525-1-1s.44771525-1 1-1 1 .44771525 1 1-.44771525 1-1 1z"
           id="path416" />
        <path
           d="m15 4c-1.6568542 0-3 1.34314575-3 3s1.3431458 3 3 3 3-1.34314575 3-3-1.3431458-3-3-3zm0 4c-.5522847 0-1-.44771525-1-1s.4477153-1 1-1 1 .44771525 1 1-.4477153 1-1 1z"
           id="path418" />
        <path
           d="m43 4h-10c-1.6568542.00000002-3 1.34314577-3 3s1.3431458 2.99999998 3 3h10c1.6568542-.00000002 3-1.34314577 3-3s-1.3431458-2.99999998-3-3zm0 4h-10c-.5522847 0-1-.44771525-1-1s.4477153-1 1-1h10c.5522847 0 1 .44771525 1 1s-.4477153 1-1 1z"
           id="path420" />
        <path
           d="m17 17c-.5522847 0-1 .4477153-1 1v5c0 2.209139 1.790861 4 4 4s4-1.790861 4-4v-5c0-.5522847-.4477153-1-1-1s-1 .4477153-1 1v5c0 1.1045695-.8954305 2-2 2s-2-.8954305-2-2v-5c0-.5522847-.4477153-1-1-1z"
           id="path422" />
        <path
           d="m26.4 26.8c.2121732.1591299.4788704.2274568.7414214.1899495.2625509-.0375073.4994487-.1777763.6585786-.3899495l2.2-2.933 2.2 2.933c.2143594.2858125.5649147.4355547.9196152.3928203.3547006-.0427344.6596589-.2714531.8-.6.1403412-.3285469.0947442-.7070078-.1196152-.9928203l-2.55-3.4 2.55-3.4c.3313708-.4418278.2418278-1.0686292-.2-1.4s-1.0686292-.2418278-1.4.2l-2.2 2.933-2.2-2.933c-.2143594-.2858125-.5649147-.4355547-.9196152-.3928203-.3547006.0427344-.6596589.2714531-.8.6-.1403412.3285469-.0947442.7070078.1196152.9928203l2.55 3.4-2.55 3.4c-.1591299.2121732-.2274568.4788704-.1899495.7414214.0375073.2625509.1777763.4994487.3899495.6585786z"
           id="path424" />
        <path
           d="m7 30c-1.65685425 0-3 1.3431458-3 3v6c0 1.6568542 1.34314575 3 3 3h8c1.6568542 0 3-1.3431458 3-3v-6c0-1.6568542-1.3431458-3-3-3zm0 10c-.55228475 0-1-.4477153-1-1v-5.866l8.236 6.866zm9-7v5.866l-8.236-6.866h7.236c.5522847 0 1 .4477153 1 1z"
           id="path426" />
        <path
           d="m20 31c0 .5522847.4477153 1 1 1h16c.5522847 0 1-.4477153 1-1s-.4477153-1-1-1h-16c-.5522847 0-1 .4477153-1 1z"
           id="path428" />
        <path
           d="m5 46h24c.5522847 0 1-.4477153 1-1s-.4477153-1-1-1h-24c-.55228475 0-1 .4477153-1 1s.44771525 1 1 1z"
           id="path430" />
        <path
           d="m5 50h18c.5522847 0 1-.4477153 1-1s-.4477153-1-1-1h-18c-.55228475 0-1 .4477153-1 1s.44771525 1 1 1z"
           id="path432" />
        <path
           d="m33 36c0-.5522847-.4477153-1-1-1h-11c-.5522847 0-1 .4477153-1 1s.4477153 1 1 1h11c.5522847 0 1-.4477153 1-1z"
           id="path434" />
        <path
           d="m21 40c-.5522847 0-1 .4477153-1 1s.4477153 1 1 1h9c.5522847 0 1-.4477153 1-1s-.4477153-1-1-1z"
           id="path436" />
        <path
           d="m45 43c0-2.209139-1.790861-4-4-4s-4 1.790861-4 4 1.790861 4 4 4 4-1.790861 4-4zm-5 1v.722c-.783936-.4526057-1.1661376-1.3753219-.9318517-2.2496889.234286-.874367 1.0266403-1.4823619 1.9318517-1.4823619s1.6975657.6079949 1.9318517 1.4823619c.2342859.874367-.1479157 1.7970832-.9318517 2.2496889v-.722c0-.5522847-.4477153-1-1-1s-1 .4477153-1 1z"
           id="path438" />
        <path
           d="m51 39c-2.209139 0-4 1.790861-4 4s1.790861 4 4 4 4-1.790861 4-4-1.790861-4-4-4zm1 5.722v-.722c0-.5522847-.4477153-1-1-1s-1 .4477153-1 1v.722c-.783936-.4526057-1.1661376-1.3753219-.9318517-2.2496889.234286-.874367 1.0266403-1.4823619 1.9318517-1.4823619s1.6975657.6079949 1.9318517 1.4823619c.2342859.874367-.1479157 1.7970832-.9318517 2.2496889z"
           id="path440" />
        <path
           d="m49 49h-6c-1.1045695 0-2 .8954305-2 2 0 2.7614237 2.2385763 5 5 5s5-2.2385763 5-5c0-.530433-.2107137-1.0391408-.5857864-1.4142136-.3750728-.3750727-.8837806-.5857864-1.4142136-.5857864zm-3 5c-1.6568542 0-3-1.3431458-3-3h6c0 1.6568542-1.3431458 3-3 3z"
           id="path442" />
      </g>
    </g>
  </g>
</svg>
