<?xml version="1.0" encoding="UTF-8" standalone="no"?>
<svg
   xmlns:dc="http://purl.org/dc/elements/1.1/"
   xmlns:cc="http://creativecommons.org/ns#"
   xmlns:rdf="http://www.w3.org/1999/02/22-rdf-syntax-ns#"
   xmlns:svg="http://www.w3.org/2000/svg"
   xmlns="http://www.w3.org/2000/svg"
   xmlns:sodipodi="http://sodipodi.sourceforge.net/DTD/sodipodi-0.dtd"
   xmlns:inkscape="http://www.inkscape.org/namespaces/inkscape"
   inkscape:version="1.0 (4035a4fb49, 2020-05-01)"
   sodipodi:docname="JunTechPC-Aruba-User-Experience-Design.svg"
   id="svg448"
   version="1.1"
   width="512"
   viewBox="0 0 60 60"
   height="512">
  <metadata
     id="metadata454">
    <rdf:RDF>
      <cc:Work
         rdf:about="">
        <dc:format>image/svg+xml</dc:format>
        <dc:type
           rdf:resource="http://purl.org/dc/dcmitype/StillImage" />
        <dc:title></dc:title>
      </cc:Work>
    </rdf:RDF>
  </metadata>
  <defs
     id="defs452" />
  <sodipodi:namedview
     inkscape:current-layer="svg448"
     inkscape:window-maximized="1"
     inkscape:window-y="-9"
     inkscape:window-x="-9"
     inkscape:cy="256"
     inkscape:cx="256"
     inkscape:zoom="0.5"
     showgrid="false"
     id="namedview450"
     inkscape:window-height="1001"
     inkscape:window-width="1920"
     inkscape:pageshadow="2"
     inkscape:pageopacity="0"
     guidetolerance="10"
     gridtolerance="10"
     objecttolerance="10"
     borderopacity="1"
     bordercolor="#666666"
     pagecolor="#ffffff" />
  <g
     transform="matrix(0.80468716,0,0,0.8046649,6.09375,5.625)"
     fill-rule="evenodd"
     fill="none"
     id="Page-1">
    <g
       fill-rule="nonzero"
       id="027---Good-User-Experience">
      <circle
         r="13"
         fill="#cad9fc"
         cy="46"
         cx="46"
         id="Oval" />
      <path
         fill="#a4c2f7"
         d="m 44.528,33.089 c 6.538842,0.784936 11.457713,6.335651 11.45057,12.921433 C 55.971428,52.596216 51.04053,58.136249 44.5,58.907 c 4.977202,0.598054 9.854787,-1.718958 12.535699,-5.954866 2.680912,-4.235908 2.687396,-9.635848 0.01666,-13.878182 C 54.381631,34.831619 49.509624,32.5029 44.531,33.089 Z"
         id="Shape" />
      <path
         fill="#e8edfc"
         d="m 49,4 v 9 H 1 V 4 C 1,2.3431457 2.3431457,1 4,1 h 42 c 1.656854,0 3,1.3431457 3,3 z"
         id="path383" />
      <path
         fill="#cad9fc"
         d="m 46,1 h -3 c 1.656854,0 3,1.3431457 3,3 v 9 h 3 V 4 C 49,2.3431457 47.656854,1 46,1 Z"
         id="path385" />
      <path
         fill="#ffffff"
         d="M 49,13 V 33.35 C 43.390332,32.01631 37.572702,34.538904 34.712199,39.545363 31.851696,44.551821 32.632576,50.844557 36.63,55 H 4 C 2.3431457,55 1,53.656854 1,52 V 13 Z"
         id="path387" />
      <path
         fill="#e8edfc"
         d="M 44.528,33.089 C 40.840195,32.655426 37.142874,33.818418 34.367326,36.285041 31.591779,38.751664 30.002572,42.286796 30,46 c -0.007,3.358023 1.295133,6.586545 3.63,9 h 3 C 33.201981,51.438358 32.093212,46.239425 33.769879,41.589114 35.446546,36.938803 39.61787,33.643605 44.53,33.089 Z"
         id="path389" />
      <path
         fill="#e8edfc"
         d="m 46,13 v 20 c 1.010255,-0.0012 2.017155,0.116264 3,0.35 V 13 Z"
         id="path391" />
      <circle
         r="2"
         fill="#e8edfc"
         cy="7"
         cx="7"
         id="circle393" />
      <circle
         r="2"
         fill="#e8edfc"
         cy="7"
         cx="15"
         id="circle395" />
      <rect
         y="5"
         x="31"
         width="14"
         rx="2"
         height="4"
         fill="#e8edfc"
         id="Rectangle-path" />
      <rect
         y="31"
         x="5"
         width="12"
         rx="2"
         height="10"
         fill="#e8edfc"
         id="rect398" />
      <path
         fill="#cad9fc"
         d="m 15,31 h -3 c 1.10457,0 2,0.89543 2,2 v 6 c 0,1.104569 -0.89543,2 -2,2 h 3 c 1.104569,0 2,-0.895431 2,-2 v -6 c 0,-1.10457 -0.895431,-2 -2,-2 z"
         id="path400" />
      <circle
         r="3"
         fill="#ffffff"
         cy="43"
         cx="41"
         id="circle402" />
      <circle
         r="3"
         fill="#ffffff"
         cy="43"
         cx="51"
         id="circle404" />
      <path
         fill="#e8edfc"
         d="m 43,50 h 6 c 0.552285,0 1,0.447715 1,1 0,2.209139 -1.790861,4 -4,4 -2.209139,0 -4,-1.790861 -4,-4 0,-0.552285 0.447715,-1 1,-1 z"
         id="path406" />
      <path
         fill="#ffffff"
         d="m 1,52 c 0,1.656854 1.3431457,3 3,3 H 7 C 5.3431457,55 4,53.656854 4,52 V 4 C 4,2.3431457 5.3431457,1 7,1 H 4 C 2.3431457,1 1,2.3431457 1,4 Z"
         id="path408" />
      <path
         fill="#ffffff"
         d="m 0,44 h 2 v 8 H 0 Z"
         id="path410" />
      <g
         id="g444"
         fill="#428dff">
        <path
           d="M 50,32.59 V 4 C 50,1.790861 48.209139,0 46,0 H 4 C 1.790861,0 0,1.790861 0,4 v 40 c 0,0.552285 0.44771525,1 1,1 0.5522847,0 1,-0.447715 1,-1 V 14 H 48 V 32.16 C 42.480932,31.350749 37.009305,33.901513 34.080646,38.648929 31.151986,43.396344 31.327446,49.430771 34.527,54 H 4 C 2.8954305,54 2,53.104569 2,52 2,51.447715 1.5522847,51 1,51 c -0.55228475,0 -1,0.447715 -1,1 0,2.209139 1.790861,4 4,4 h 32.221 c 4.157097,4.068715 10.397891,5.141066 15.674699,2.693373 C 57.172506,56.24568 60.384543,50.78855 59.963216,44.986966 59.541889,39.185381 55.57509,34.249598 50,32.59 Z M 2,12 V 4 C 2,2.8954305 2.8954305,2 4,2 h 42 c 1.104569,0 2,0.8954305 2,2 v 8 z m 44,46 c -6.627417,0 -12,-5.372583 -12,-12 0,-6.627417 5.372583,-12 12,-12 6.627417,0 12,5.372583 12,12 -0.0072,6.624447 -5.375553,11.992835 -12,12 z"
           id="path412" />
        <path
           d="M 1.02,49 C 0.46771525,49.002761 0.01776142,48.557285 0.015,48.005 0.01223858,47.452715 0.45771525,47.002761 1.01,47 h 0.01 c 0.5522848,0 1,0.447715 1,1 0,0.552285 -0.4477152,1 -1,1 z"
           id="path414" />
        <path
           d="M 7,4 C 5.3431457,4 4,5.3431457 4,7 4,8.6568543 5.3431457,10 7,10 8.6568543,10 10,8.6568543 10,7 10,5.3431457 8.6568543,4 7,4 Z M 7,8 C 6.4477152,8 6,7.5522847 6,7 6,6.4477152 6.4477152,6 7,6 7.5522847,6 8,6.4477152 8,7 8,7.5522847 7.5522847,8 7,8 Z"
           id="path416" />
        <path
           d="m 15,4 c -1.656854,0 -3,1.3431457 -3,3 0,1.6568543 1.343146,3 3,3 1.656854,0 3,-1.3431457 3,-3 0,-1.6568543 -1.343146,-3 -3,-3 z m 0,4 c -0.552285,0 -1,-0.4477153 -1,-1 0,-0.5522848 0.447715,-1 1,-1 0.552285,0 1,0.4477152 1,1 0,0.5522847 -0.447715,1 -1,1 z"
           id="path418" />
        <path
           d="M 43,4 H 33 c -1.656854,0 -3,1.3431458 -3,3 0,1.6568542 1.343146,3 3,3 h 10 c 1.656854,0 3,-1.3431458 3,-3 0,-1.6568542 -1.343146,-3 -3,-3 z m 0,4 H 33 C 32.447715,8 32,7.5522847 32,7 32,6.4477152 32.447715,6 33,6 h 10 c 0.552285,0 1,0.4477152 1,1 0,0.5522847 -0.447715,1 -1,1 z"
           id="path420" />
        <path
           d="m 17,17 c -0.552285,0 -1,0.447715 -1,1 v 5 c 0,2.209139 1.790861,4 4,4 2.209139,0 4,-1.790861 4,-4 v -5 c 0,-0.552285 -0.447715,-1 -1,-1 -0.552285,0 -1,0.447715 -1,1 v 5 c 0,1.104569 -0.895431,2 -2,2 -1.10457,0 -2,-0.895431 -2,-2 v -5 c 0,-0.552285 -0.447715,-1 -1,-1 z"
           id="path422" />
        <path
           d="m 26.4,26.8 c 0.212173,0.15913 0.47887,0.227457 0.741421,0.18995 C 27.403972,26.952442 27.64087,26.812173 27.8,26.6 L 30,23.667 32.2,26.6 c 0.214359,0.285812 0.564915,0.435555 0.919615,0.39282 0.354701,-0.04273 0.659659,-0.271453 0.8,-0.6 C 34.059956,26.064273 34.014359,25.685812 33.8,25.4 L 31.25,22 33.8,18.6 c 0.331371,-0.441828 0.241828,-1.068629 -0.2,-1.4 -0.441828,-0.331371 -1.068629,-0.241828 -1.4,0.2 L 30,20.333 27.8,17.4 c -0.214359,-0.285812 -0.564915,-0.435555 -0.919615,-0.39282 -0.354701,0.04273 -0.659659,0.271453 -0.8,0.6 C 25.940044,17.935727 25.985641,18.314188 26.2,18.6 l 2.55,3.4 -2.55,3.4 c -0.15913,0.212173 -0.227457,0.47887 -0.18995,0.741421 C 26.047558,26.403972 26.187827,26.64087 26.4,26.8 Z"
           id="path424" />
        <path
           d="m 7,30 c -1.6568543,0 -3,1.343146 -3,3 v 6 c 0,1.656854 1.3431457,3 3,3 h 8 c 1.656854,0 3,-1.343146 3,-3 v -6 c 0,-1.656854 -1.343146,-3 -3,-3 z M 7,40 C 6.4477152,40 6,39.552285 6,39 V 33.134 L 14.236,40 Z m 9,-7 v 5.866 L 7.764,32 H 15 c 0.552285,0 1,0.447715 1,1 z"
           id="path426" />
        <path
           d="m 20,31 c 0,0.552285 0.447715,1 1,1 h 16 c 0.552285,0 1,-0.447715 1,-1 0,-0.552285 -0.447715,-1 -1,-1 H 21 c -0.552285,0 -1,0.447715 -1,1 z"
           id="path428" />
        <path
           d="m 5,46 h 24 c 0.552285,0 1,-0.447715 1,-1 0,-0.552285 -0.447715,-1 -1,-1 H 5 c -0.5522848,0 -1,0.447715 -1,1 0,0.552285 0.4477152,1 1,1 z"
           id="path430" />
        <path
           d="m 5,50 h 18 c 0.552285,0 1,-0.447715 1,-1 0,-0.552285 -0.447715,-1 -1,-1 H 5 c -0.5522848,0 -1,0.447715 -1,1 0,0.552285 0.4477152,1 1,1 z"
           id="path432" />
        <path
           d="m 33,36 c 0,-0.552285 -0.447715,-1 -1,-1 H 21 c -0.552285,0 -1,0.447715 -1,1 0,0.552285 0.447715,1 1,1 h 11 c 0.552285,0 1,-0.447715 1,-1 z"
           id="path434" />
        <path
           d="m 21,40 c -0.552285,0 -1,0.447715 -1,1 0,0.552285 0.447715,1 1,1 h 9 c 0.552285,0 1,-0.447715 1,-1 0,-0.552285 -0.447715,-1 -1,-1 z"
           id="path436" />
        <path
           d="m 45,43 c 0,-2.209139 -1.790861,-4 -4,-4 -2.209139,0 -4,1.790861 -4,4 0,2.209139 1.790861,4 4,4 2.209139,0 4,-1.790861 4,-4 z m -5,1 v 0.722 C 39.216064,44.269394 38.833862,43.346678 39.068148,42.472311 39.302434,41.597944 40.094789,40.989949 41,40.989949 c 0.905211,0 1.697566,0.607995 1.931852,1.482362 C 43.166138,43.346678 42.783936,44.269394 42,44.722 V 44 c 0,-0.552285 -0.447715,-1 -1,-1 -0.552285,0 -1,0.447715 -1,1 z"
           id="path438" />
        <path
           d="m 51,39 c -2.209139,0 -4,1.790861 -4,4 0,2.209139 1.790861,4 4,4 2.209139,0 4,-1.790861 4,-4 0,-2.209139 -1.790861,-4 -4,-4 z m 1,5.722 V 44 c 0,-0.552285 -0.447715,-1 -1,-1 -0.552285,0 -1,0.447715 -1,1 v 0.722 C 49.216064,44.269394 48.833862,43.346678 49.068148,42.472311 49.302434,41.597944 50.094789,40.989949 51,40.989949 c 0.905211,0 1.697566,0.607995 1.931852,1.482362 C 53.166138,43.346678 52.783936,44.269394 52,44.722 Z"
           id="path440" />
        <path
           d="m 49,49 h -6 c -1.104569,0 -2,0.895431 -2,2 0,2.761424 2.238576,5 5,5 2.761424,0 5,-2.238576 5,-5 0,-0.530433 -0.210714,-1.039141 -0.585786,-1.414214 C 50.039141,49.210714 49.530433,49 49,49 Z m -3,5 c -1.656854,0 -3,-1.343146 -3,-3 h 6 c 0,1.656854 -1.343146,3 -3,3 z"
           id="path442" />
      </g>
    </g>
  </g>
</svg>
