<?xml version="1.0" encoding="UTF-8" standalone="no"?>
<svg
   xmlns:dc="http://purl.org/dc/elements/1.1/"
   xmlns:cc="http://creativecommons.org/ns#"
   xmlns:rdf="http://www.w3.org/1999/02/22-rdf-syntax-ns#"
   xmlns:svg="http://www.w3.org/2000/svg"
   xmlns="http://www.w3.org/2000/svg"
   xmlns:sodipodi="http://sodipodi.sourceforge.net/DTD/sodipodi-0.dtd"
   xmlns:inkscape="http://www.inkscape.org/namespaces/inkscape"
   inkscape:version="1.0 (4035a4fb49, 2020-05-01)"
   sodipodi:docname="JunTechPC-Aruba-Meet-Our-Creative-Team.svg"
   version="1.1"
   viewBox="0 0 676 676"
   height="676"
   width="676"
   data-name="Layer 1"
   id="e59edb86-a3bc-4694-8aac-31e565ca5cfc">
  <metadata
     id="metadata1169">
    <rdf:RDF>
      <cc:Work
         rdf:about="">
        <dc:format>image/svg+xml</dc:format>
        <dc:type
           rdf:resource="http://purl.org/dc/dcmitype/StillImage" />
        <dc:title>male_avatar</dc:title>
      </cc:Work>
    </rdf:RDF>
  </metadata>
  <defs
     id="defs1167" />
  <sodipodi:namedview
     inkscape:current-layer="e59edb86-a3bc-4694-8aac-31e565ca5cfc"
     inkscape:window-maximized="1"
     inkscape:window-y="-9"
     inkscape:window-x="-9"
     inkscape:cy="338.00006"
     inkscape:cx="338.00015"
     inkscape:zoom="0.5"
     showgrid="false"
     id="namedview1165"
     inkscape:window-height="1001"
     inkscape:window-width="1920"
     inkscape:pageshadow="2"
     inkscape:pageopacity="0"
     guidetolerance="10"
     gridtolerance="10"
     objecttolerance="10"
     borderopacity="1"
     bordercolor="#666666"
     pagecolor="#ffffff" />
  <title
     id="title1134">male_avatar</title>
  <path
     style="fill:#2a7fff;stroke-width:0.852071"
     id="path1136"
     fill="#00b0ff"
     d="m 621.99975,335.99995 a 287.0217,287.02177 0 0 1 -23.19336,113.41063 l -0.95432,2.19834 A 288.47618,288.47625 0 0 1 284.02593,619.67989 q -2.59455,-0.46011 -5.18059,-0.95431 a 285.42757,285.42764 0 0 1 -52.0956,-15.36284 q -4.10272,-1.64876 -8.14579,-3.41681 c -1.84047,-0.80094 -3.68095,-1.62745 -5.50438,-2.47952 A 288.35284,288.35291 0 0 1 46,335.99995 C 46,176.94388 174.94385,48 333.99988,48 493.0559,48 621.99975,176.94388 621.99975,335.99995 Z" />
  <path
     style="stroke-width:0.852071"
     id="path1146"
     opacity="0.2"
     d="m 234.91641,253.79334 c -5.43661,30.67226 6.56483,58.44545 6.56483,58.44545 0,0 20.8159,-21.95637 26.25251,-52.62864 5.4366,-30.67227 -6.56484,-58.44546 -6.56484,-58.44546 0,0 -20.81591,21.95638 -26.2525,52.62865 z" />
  <ellipse
     ry="112.2775"
     rx="112.27747"
     style="fill:#f4e3d7;stroke-width:0.852071"
     id="circle1152"
     fill="#d0cde1"
     cy="287.49905"
     cx="333.40863" />
  <path
     style="fill:#f4e3d7;stroke-width:0.852071"
     id="path1154"
     fill="#d0cde1"
     d="m 289.55022,373.46151 c 0,0 14.03469,66.66476 14.03469,73.6821 0,7.01734 66.66474,38.5954 66.66474,38.5954 l 59.64737,-10.52602 21.05211,-63.1561 c 0,0 -35.08671,-52.63007 -35.08671,-73.6821 z" />
  <path
     style="fill:#000000;stroke-width:0.852071"
     id="path1156"
     fill="#2f2e41"
     d="m 598.80639,449.41058 -0.95432,2.19834 A 288.47618,288.47625 0 0 1 284.02593,619.67989 q -2.59455,-0.46011 -5.18059,-0.95431 a 285.42757,285.42764 0 0 1 -52.0956,-15.36284 q -4.10272,-1.64876 -8.14579,-3.41681 c -1.84047,-0.80094 -3.68095,-1.62745 -5.50438,-2.47952 a 287.65285,287.65292 0 0 1 -47.0769,-27.50485 l -13.30934,-38.60733 7.48118,-5.70883 15.38839,-11.75006 16.4194,-12.53396 4.26888,-3.26343 64.42506,-49.18153 4.75455,-3.62982 33.48638,-25.56213 0.009,-0.009 c 0,0 36.213,59.00591 88.8454,41.46177 52.63241,-17.54414 51.48211,-67.8504 51.48211,-67.8504 z" />
  <path
     style="fill:#1a1a1a;stroke-width:0.852071"
     id="path1158"
     fill="#2f2e41"
     d="m 236.0419,197.04082 c 0,0 35.64768,-77.23665 103.97239,-59.41281 68.32472,17.82384 106.94303,44.55961 109.91371,71.29538 2.97067,26.73577 -1.48532,66.8394 -1.48532,66.8394 0,0 -7.42665,-54.95687 -54.95686,-43.07429 -47.5302,11.88258 -121.79623,2.97065 -121.79623,2.97065 l -11.88257,106.94306 c 0,0 -13.36788,-19.30916 -28.22108,-7.4266 -14.85319,11.88256 -43.07427,-114.36968 4.45596,-138.13479 z" />
  <path
     style="fill:#000000;stroke-width:0.852071"
     id="path1160"
     fill="#2f2e41"
     d="m 226.74974,603.36274 q -4.10272,-1.64876 -8.14579,-3.41681 c -1.84047,-0.80094 -3.68095,-1.62745 -5.50438,-2.47952 A 288.71135,288.71143 0 0 1 138.4667,547.44985 c 7.83053,-10.66793 14.24663,-16.09562 14.24663,-16.09562 h 52.6324 l 7.89017,26.53349 z" />
  <path
     style="fill:#000000;stroke-width:0.852071"
     id="path1162"
     fill="#2f2e41"
     d="m 552.70085,443.63354 45.15122,7.97538 a 287.95245,287.95252 0 0 1 -48.36353,75.46791 z" />
  <ellipse
     style="stroke-width:0.103769"
     ry="23.501579"
     rx="23.713875"
     id="circle151"
     cy="479.52423"
     cx="511.49924" />
  <g
     transform="matrix(0.09263231,0,0,0.09180305,487.86398,456.04186)"
     id="g935"
     style="fill:#0066ff">
    <g
       id="g933"
       style="fill:#0066ff">
      <path
         d="M 437.02,74.98 C 388.667,26.628 324.38,0 256,0 187.62,0 123.333,26.628 74.98,74.98 26.628,123.333 0,187.62 0,256 0,324.38 26.628,388.667 74.98,437.02 123.333,485.372 187.62,512 256,512 324.38,512 388.667,485.372 437.02,437.02 485.372,388.667 512,324.38 512,256 512,187.62 485.372,123.333 437.02,74.98 Z M 256,491.602 C 126.089,491.602 20.398,385.912 20.398,256 20.398,126.088 126.089,20.398 256,20.398 385.911,20.398 491.602,126.089 491.602,256 491.602,385.911 385.911,491.602 256,491.602 Z"
         id="path931"
         style="fill:#0066ff" />
    </g>
  </g>
  <g
     transform="matrix(0.06332392,0,0,0.06275942,496.15729,464.18846)"
     style="fill:#0066ff"
     id="g263">
    <g
       style="fill:#0066ff"
       id="g261">
      <g
         style="fill:#0066ff"
         id="g259">
        <polygon
           style="fill:#0066ff"
           id="polygon249"
           points="182.1,288.9 136.7,210 45.4,210 0,288.9 45.4,367.7 136.7,367.7 " />
        <polygon
           style="fill:#0066ff"
           id="polygon251"
           points="290,121.5 199.2,121.5 153.7,200.3 199.2,279.2 290,279.2 335.8,200.3 " />
        <polygon
           style="fill:#0066ff"
           id="polygon253"
           points="199.2,298.6 153.7,377.4 199.2,456.6 290,456.6 335.8,377.4 290,298.6 " />
        <polygon
           style="fill:#0066ff"
           id="polygon255"
           points="136.7,190.6 182.1,111.8 136.7,32.6 45.4,32.6 0,111.8 45.4,190.6 " />
        <polygon
           style="fill:#0066ff"
           id="polygon257"
           points="352.5,32.6 307.1,111.4 352.5,190.6 443.8,190.6 489.2,111.8 443.8,32.6 " />
      </g>
    </g>
  </g>
</svg>
