<svg xmlns="http://www.w3.org/2000/svg" xmlns:v="https://vecta.io/nano" xmlns:xlink="http://www.w3.org/1999/xlink" width="759.523" height="640.549"><path fill="#ccc" d="M131.606 178.908c37.877 6.045 76.515 0 114.235-4.096l114.637-12.413c4.636-.509 11.382-2.905 14.109 1.999 1.536 2.743.502 8.689.617 11.842.301 8.689.273 17.379 0 26.068-.517 16.609-1.923 33.181-3.717 49.715-3.488 32.362-8.425 64.549-10.894 97.035-1.263 16.535-1.895 33.119-1.335 49.653.129 3.947.316 7.895.588 11.83.301 4.407 2.584 10.949-2.971 13.891-3.172 1.688-9.416 1.601-13.047 2.098-5.741.782-11.482 1.403-17.338 1.912-38.595 3.339-77.692 1.949-116.431 1.75l-145.51-.658c-2.584 0-11.899 1.341-13.492-1.316-.675-1.13 1.12-6.418 1.435-7.833q.66-3.501 1.435-6.989c3.33-16.324 7.263-32.548 11.224-48.76 8.511-34.757 17.224-69.689 20.726-105.191 1.737-17.813.588-35.788 2.713-53.564.99-8.255 2.167-26.676 14.87-27.409 10.765-.621 21.845 0 32.639 0a2.153 1.862 0 0 0 0-3.724c-10.191 0-20.396-.236-30.586-.062-6.775.112-11.482 1.502-14.712 6.889-8.253 13.828-7.406 32.275-7.664 47.369-.617 36.135-7.033 71.501-15.386 106.842l-12.918 53.315-5.569 25.584c-.804 4.072-4.866 13.046-1.292 16.783s14.568 1.725 19.491 1.75l99.868.497 127.325.161c20.238-.521 41.623-1.241 61.33-5.425 5.87-1.241 8.698-3.575 8.928-8.987.344-8.391-1.234-17.044-1.435-25.472-1.435-72.122 18.156-143.238 16.147-215.384-.129-4.903 2.009-17.267-4.191-20.234-2.784-1.341-6.401-.608-9.329-.31l-89.476 9.658-69.741 7.448c-24.644 2.483-49.532 3.96-74.09 0-2.713-.434-3.875 3.153-1.148 3.587z"/><path fill="#dfdfdf" d="M85.907 222.789l286.8-12.165c2.77-.124 2.784-3.848 0-3.724l-286.8 12.165c-2.756.112-2.77 3.836 0 3.724z"/><path fill="#dbdbdb" d="M174.263 192.091a7.176 6.207 0 0 0 2.54 10.018c3.861 1.527 8.396.248 12.229-.583 5.741-1.241 11.482-2.346 17.381-3.252a237.038 205.006 0 0 1 38.882-3.128c5.942-.062 11.841.174 17.783.397 4.306.149 8.942.447 12.588-1.862 4.162-2.632 5.512-7.771 1.435-10.973-5.741-4.531-18.113-1.899-24.744-1.428a554.909 479.922 0 0 0-71.564 9.236c-2.698.497-1.564 4.096 1.148 3.587q23.352-4.357 47.063-7.001 11.655-1.241 23.352-2.098l11.023-.683c1.435-.075 2.957-.211 4.421-.174 4.55.087 5.081-.621 2.354 4.134-2.426 4.208-1.651 3.724-5.856 3.587-1.78 0-3.56-.174-5.339-.248q-5.468-.199-10.937-.211-11.64 0-23.223.968c-6.545.546-13.076 1.316-19.549 2.309-4.048.621-8.066 1.341-12.071 2.135l-5.311 1.117c-.847.199-1.708.372-2.555.559q-4.708 1.415-8.023-3.724c1.923-1.725-1.105-4.369-3.043-2.632z"/><path fill="#ddd" d="M226.25 245.071c-20.769-.695-43.202 4.158-56.881 18.62-10.707 11.309-16.807 30.711-5.468 43.447 12.186 13.655 38.911 11.247 55.029 5.425 17.051-6.207 35.71-19.005 40.834-35.018 6.387-19.998-14.353-35.117-35.954-35.341a2.154 1.863 0 0 0 0 3.724c12.315.124 24.4 4.692 30.141 14.611 6.014 10.452.832 21.425-7.176 29.792-12.832 13.32-32.897 23.362-53.335 23.076-12.272-.161-25.835-3.798-29.639-14.995-3.129-9.074-.746-18.992 4.708-27.036 11.798-17.379 35.811-23.263 57.828-22.518 2.77.087 2.77-3.637 0-3.724z"/><g fill="#e6e6e6"><path d="M205.624 272.654a5.598 4.841 0 0 0-7.521 4.965c.431 4.841 6.602 6.207 11.238 5.921 4.004-.298 8.684-1.576 7.277-5.909a6.43 5.561 0 0 0-3.502-3.501 8.109 7.013 0 0 0-4.048-.434c-.531 0-5.397 1.539-3.33-.31l-3.387-.385a3.531 3.054 0 0 1 1.033 2.483 2.167 1.874 0 0 0 3.229 1.601 2.871 2.483 0 0 1 3.89 2.905 2.167 1.874 0 0 0 3.933 1.44c1.435-2.234 3.172-6.678 1.019-9.012-1.435-1.576-4.205-1.105-5.928-.186a20.769 17.962 0 0 0-2.957 2.197c-1.737 1.328-2.871 1.949-2.225-.596 1.076-4.63 6.186-8.317 10.851-10.167l-3.158-2.098a45.384 39.251 0 0 1-8.684 14.71l3.674 1.316a9.588 8.292 0 0 1 5.856-8.081h-2.11l1.12 1.589c-.416 2.346 3.732 3.352 4.148.981.545-3.066-1.694-7.051-5.842-5.549-4.952 1.788-7.521 6.691-7.42 11.06 0 1.49 2.44 2.644 3.689 1.328a50.608 43.769 0 0 0 9.774-16.373 2.182 1.887 0 0 0-3.172-2.098 24.07 20.817 0 0 0-10.449 7.87c-1.751 2.483-3.947 6.356-2.167 9.211a4.564 3.947 0 0 0 6.202 1.547l.042-.02a16.793 14.523 0 0 0 3.603-2.483c.531-.41 1.12-1.117 1.823-1.241.632-.372.603-.161-.1.658a7.823 6.765 0 0 1-1.249 3.625l3.933 1.428a7.176 6.207 0 0 0-10.205-7.113l3.244 1.614a7.822 6.765 0 0 0-1.622-4.382 2.182 1.887 0 0 0-3.373-.385c-2.182 1.974-2.598 5.387.144 7.212 2.052 1.353 3.057 0 5.311-.31 7.65-.857 3.186 2.123.488 2.222a10.176 8.801 0 0 1-3.603-.223q-4.492-1.316-.56-3.389c2.569.906 3.674-2.694 1.148-3.587z"/><path d="M202.165 279.456c1.765 4.965-5.526 6.604-8.985 8.317a20.008 17.304 0 0 0-6.215 4.705c-3.617 4.196-4.966 9.533-6.157 14.561-.545 2.346 3.603 3.339 4.162.993a48.8 42.205 0 0 1 3.631-10.713c2.584-4.444 6.287-5.934 11.109-8.218s8.31-5.822 6.602-10.638c-.804-2.284-4.966-1.303-4.148.993z"/><path d="M209.342 276.961a4.162 3.6 0 0 0-3.588 3.724c0 1.477 1.134 2.421 1.909 3.6a32.867 28.426 0 0 1 4.162 7.833c.689 2.669 1.364 7.448-.244 9.931-2.971 4.605-8.339 3.724-12.918 3.724-4.306 0-7.636 1.241-7.492-3.947.086-2.917 2.44-5.872 4.306-8.168l-3.933-.447a75.025 64.886 0 0 1 1.306 11.495c0 1.725 3.057 2.681 4.004.931a83.147 71.911 0 0 0 5.468-13.084l-4.234-.497.746 9.434a2.167 1.874 0 0 0 4.004.943 4.88 4.22 0 0 0 1.076-1.676c.144-.583-1.177-4.518-1.708-3.116l4.22.497.301-8.962-4.306.497a21.444 18.546 0 0 1 .804 7.82c-.273 2.073 3.76 2.545 4.306.497l2.698-12.041-3.933.434a9.516 8.23 0 0 1 .732 5.363c-.316 2.383 3.99 2.359 4.306 0a15.128 13.084 0 0 0-1.32-7.237 2.167 1.874 0 0 0-3.933.447l-2.713 12.041 4.234.497a23.482 20.309 0 0 0-.962-8.801 2.153 1.862 0 0 0-4.22.484l-.301 8.962a2.163 1.871 0 0 0 4.234.497l.23-.608a2.182 1.887 0 0 0-.545-1.812c-4.464-4.196-5.368 2.483-6.918 4.332l4.019.943-.746-9.434c-.158-2.011-3.603-2.632-4.234-.497a77.162 66.735 0 0 1-5.024 12.202l4.019.943a81.152 70.185 0 0 0-1.435-12.488c-.373-1.713-2.971-1.639-3.933-.447-2.871 3.575-7.837 11.383-4.004 15.666 3.344 3.724 13.865 2.284 18.357 2.048 7.09-.348 9.66-4.233 10.435-10.018a28.36 24.528 0 0 0-.531-8.292c-.388-1.465-4.306-10.75-5.483-10.564 2.727-.434 1.564-4.034-1.148-3.6z"/><path d="M201.003 285.328l-11.755 13.419 3.717 1.874 8.612-10.775-3.933-1.44-4.292 14.164a2.167 1.874 0 0 0 3.933 1.44 75.66 65.435 0 0 1 6.559-7.982l-3.588-1.812a23.438 20.271 0 0 1-5.411 8.602l3.603 1.812a19.233 16.634 0 0 1 1.564-4.965c1.105-2.148-2.397-4.047-3.717-1.887a50.535 43.706 0 0 1-4.148 5.636l3.933.447.876-3.538-3.933-.447.632 3.103a2.167 1.874 0 0 0 3.603.819 42.857 37.066 0 0 0 8.612-11.234h-3.703a19.334 16.721 0 0 1 2.024 4.965c.517 2.234 3.947 1.403 4.22-.497a116.702 100.931 0 0 0 .947-12.537h-4.306v7.808c0 2.023 3.832 2.619 4.234.497a16.449 14.226 0 0 1 2.11-5.338h-3.775a9.574 8.28 0 0 1 1.435 4.221 2.153 1.862 0 0 0 4.306 0l.545-2.483h-4.148c.416 2.197 1.995 14.573-3.617 13.121-.947-.199-1.22-.149-.818.137l1.277-2.359 3-5.499-4.019-.943c.258 2.557.531 6.207-1.249 8.391-1.435 1.775-5.856 2.483-8.109 1.44a14.353 12.414 0 0 1-3.746-3.401l-2.942 2.483c2.383 1.502 6.244 5.189 9.315 5.4 2.34.161 4.306-1.514 5.842-2.855a25.017 21.637 0 0 0 7.019-15.926 2.153 1.862 0 0 0-4.306 0v4.245a2.153 1.862 0 0 0 4.306 0v-10.415a2.153 1.862 0 0 0-4.306 0 51.669 44.687 0 0 1-.746 7.448l4.234.497a99.124 85.729 0 0 1-.474-8.925 2.153 1.862 0 0 0-4.22-.497c-.646 2.371-1.435 4.705-2.196 7.026l3.933-.447-.301-.993c-.201-2.371-4.507-2.383-4.306 0a7.88 6.815 0 0 0 .89 2.88c.832 1.514 3.43.981 3.933-.447.818-2.334 1.55-4.667 2.196-7.026l-4.234-.497a99.123 85.728 0 0 0 .474 8.925c.215 1.912 3.775 2.731 4.22.497a59.317 51.301 0 0 0 .904-8.491h-4.306v10.415h4.306v-4.245h-4.306a20.697 17.9 0 0 1-5.239 12.761 17.633 15.25 0 0 1-1.808 1.539c-1.019.844-1.952.72-2.77-.385-2.038-.732-4.148-2.619-5.928-3.724s-4.22 1.08-2.957 2.545c3.301 3.798 8.224 8.031 14.353 6.207 6.444-1.974 7.32-9.521 6.832-14.486-.158-1.651-3.014-2.768-4.004-.931l-4.306 7.858a8.027 6.942 0 0 0-1.292 3.277c.474 2.793 4.392 2.334 6.803 2.172 9.344-.608 7.865-12.066 6.789-17.826-.359-1.912-3.574-1.614-4.148 0a12.673 10.961 0 0 0-.703 3.525h4.306a17.066 14.76 0 0 0-2.024-6.095 2.167 1.874 0 0 0-3.717 0 20.927 18.099 0 0 0-2.555 6.207l4.306.497v-7.808a2.153 1.862 0 0 0-4.306 0 116.702 100.931 0 0 1-.947 12.537l4.234-.497a24.644 21.314 0 0 0-2.454-5.809 2.167 1.874 0 0 0-3.717 0 39.27 33.963 0 0 1-7.937 10.477l3.603.819-.632-3.103c-.33-1.651-3.028-1.701-3.933-.447a9.444 8.168 0 0 0-1.306 6.405c.359 1.763 2.942 1.577 3.933.447a50.376 43.568 0 0 0 4.148-5.623l-3.717-1.887a24.486 21.177 0 0 0-2.009 5.847c-.258 1.639 1.995 3.352 3.603 1.812a28.706 24.827 0 0 0 6.516-10.253c.531-1.688-2.167-3.29-3.603-1.812a82.224 71.113 0 0 0-7.176 8.689l3.933 1.44 4.378-14.114a2.167 1.874 0 0 0-3.933-1.44l-8.612 10.787c-1.608 1.999 2.081 3.724 3.717 1.874l11.712-13.406c1.665-1.912-2.067-3.724-3.717-1.887z"/></g><path fill="#dedede" d="M384.117 330.128c17.224-9.111 30.916-22.704 46.13-34.075 16.506-12.326 33.83-23.809 51.671-34.683 34.648-21.103 71.033-39.983 107.389-58.814a2.153 1.862 0 0 0-2.167-3.215c-36.356 18.831-72.755 37.675-107.403 58.814-16.348 9.931-32.308 20.457-47.609 31.629-16.649 12.165-31.476 27.309-50.235 37.128-2.368 1.241-.201 4.469 2.167 3.215z"/><use fill="#cfcfcf" xlink:href="#B"/><use x="28.706" y="143.995" fill="#cecece" xlink:href="#B"/><path fill="#dcdcdc" d="M616.75 180.994l13.592 13.406a2.167 1.874 0 0 0 3.588-.832c2.871-6.529 2.325-13.295 3-20.159a76.745 66.374 0 0 1 6.1-20.569A80.276 69.428 0 0 1 675.152 121c2.368-1.241.201-4.469-2.167-3.215a84.28 72.891 0 0 0-32.481 30.86 82.487 71.341 0 0 0-7.176 19.7c-1.435 8.056-.129 16.497-3.574 24.231l3.603-.832-13.52-13.382c-1.837-1.8-4.866.844-3.043 2.632z"/><path fill="#d8d8d8" d="M391.05 344.639q111.049-2.93 222.155-1.241a2.154 1.863 0 0 0 0-3.724q-111.077-1.713-222.155 1.241c-2.77.075-2.784 3.798 0 3.724z"/><path fill="#e6e6e6" d="M628.677 307.92a444.826 384.714 0 0 1 72.726 31.604c2.354 1.241 4.521-1.949 2.167-3.215a449.576 388.823 0 0 0-73.688-31.977c-2.569-.881-3.689 2.719-1.134 3.587z"/><path fill="#e0e0e0" d="M674.635 291.05a175.823 152.064 0 0 0-42.212 92.517c-.115 2.396 4.191 2.396 4.306 0a171.001 147.893 0 0 1 40.949-89.885c1.794-1.812-1.234-4.456-3.043-2.632z"/><path fill="#ccc" d="M100.59 331.121l188.813-2.135c4.665 0 7.808 3.352 7.722 7.448-.215 8.689-6.531 8.379-14.798 8.689l-19.936.782-81.18 3.091-43.633 1.676c-13.119.348-38.064-3.352-32.237-19.861.804-2.296-3.344-3.277-4.162-.993-2.871 8.118 2.21 16.361 10.392 20.619 11.612 6.033 26.912 3.985 39.729 3.488l123.866-4.841c6.2-.248 14.827.844 20.525-1.651 6.688-2.917 7.865-14.499 3.646-19.377-2.167-2.483-5.21-2.706-8.612-2.818-8.928-.298-18.013.211-26.955.31l-163.236 1.812a2.154 1.863 0 0 0 0 3.724z"/><path fill="#0099de" d="M547.109 432.494l13.681 15.867 4.058-2.617-13.681-15.867 20.728-2.062-46.597-24.279 13.608 45.555z"/><path fill="#00b0ff" d="M562.49 453.966h78.941v23.585H562.49z"/><path fill="#5df" d="M320.953 240.087l-13.681 15.867-4.058-2.617 13.681-15.867-20.728-2.062 46.597-24.279-13.608 45.555zm-94.322 22.714h78.941v23.585h-78.941z"/><defs><path id="B" d="M644.896 144.734c-18.659 1.639-38.753 5.747-50.235 19.861-9.918 12.14-9.703 33.317-.388 45.78 10.578 14.164 32.194 14.673 48.987 10.092s34.174-12.612 34.016-29.966c-.086-9.31-3.976-19.005-8.267-27.446-3.703-7.287-10.262-13.655-20.195-12.848-2.741.223-2.77 3.947 0 3.724 13.305-1.068 17.582 12.6 20.74 21.227 2.871 8.056 5.526 17.59 1.019 25.596s-15.372 12.091-24.658 15.02c-10.047 3.153-21.084 5.077-31.576 2.483-20.783-5.027-26.524-27.806-20.539-43.968 6.889-18.62 31.289-24.094 51.168-25.832 2.727-.236 2.756-3.96 0-3.724z"/></defs></svg>