<?xml version="1.0" standalone="no"?>
<!DOCTYPE svg PUBLIC "-//W3C//DTD SVG 20010904//EN"
 "http://www.w3.org/TR/2001/REC-SVG-20010904/DTD/svg10.dtd">
<svg version="1.0" xmlns="http://www.w3.org/2000/svg"
 width="510.000000pt" height="510.000000pt" viewBox="0 0 510.000000 510.000000"
 preserveAspectRatio="xMidYMid meet">
<metadata>
Created by potrace 1.16, written by Peter Selinger 2001-2019
</metadata>
<g transform="translate(0.000000,510.000000) scale(0.100000,-0.100000)"
fill="#000000" stroke="none">
<path d="M728 3945 c-104 -172 -188 -319 -188 -325 0 -7 84 -151 186 -321
l185 -309 387 2 386 3 187 312 188 313 -191 320 -190 320 -382 0 -381 0 -187
-315z"/>
<path d="M3285 3963 c-98 -164 -184 -307 -191 -318 -12 -19 5 -51 174 -335
l187 -315 387 -3 387 -2 185 309 c102 170 186 314 186 321 0 6 -84 153 -187
325 l-188 315 -381 0 -381 0 -178 -297z"/>
<path d="M2000 3234 c-105 -174 -189 -322 -186 -328 2 -6 87 -148 188 -316
l184 -305 384 0 383 0 188 310 c104 171 188 315 188 320 0 6 -85 150 -188 320
l-189 310 -380 3 -380 2 -192 -316z"/>
<path d="M726 2529 c-102 -171 -186 -316 -186 -321 0 -5 84 -149 186 -319
l185 -309 387 2 386 3 188 313 187 312 -187 313 -188 312 -386 3 -387 2 -185
-311z"/>
<path d="M2000 1822 l-191 -318 188 -317 188 -316 385 0 385 0 188 315 c104
173 186 321 184 327 -3 7 -88 149 -190 317 l-185 305 -381 3 -380 2 -191 -318z"/>
</g>
</svg>
