<?xml version="1.0" encoding="UTF-8" standalone="no"?>
<svg
   xmlns:dc="http://purl.org/dc/elements/1.1/"
   xmlns:cc="http://creativecommons.org/ns#"
   xmlns:rdf="http://www.w3.org/1999/02/22-rdf-syntax-ns#"
   xmlns:svg="http://www.w3.org/2000/svg"
   xmlns="http://www.w3.org/2000/svg"
   xmlns:sodipodi="http://sodipodi.sourceforge.net/DTD/sodipodi-0.dtd"
   xmlns:inkscape="http://www.inkscape.org/namespaces/inkscape"
   inkscape:version="1.0 (4035a4fb49, 2020-05-01)"
   sodipodi:docname="JunTechPC-Aruba-Graphic-Design-Services.svg"
   version="1.1"
   viewBox="0 0 731.41339 522.40206"
   height="522.40206"
   width="731.41339"
   data-name="Layer 1"
   id="b0be4804-10ca-4842-b31b-b943f29dadcb">
  <metadata
     id="metadata1804">
    <rdf:RDF>
      <cc:Work
         rdf:about="">
        <dc:format>image/svg+xml</dc:format>
        <dc:type
           rdf:resource="http://purl.org/dc/dcmitype/StillImage" />
        <dc:title></dc:title>
      </cc:Work>
    </rdf:RDF>
  </metadata>
  <defs
     id="defs1802" />
  <sodipodi:namedview
     inkscape:current-layer="b0be4804-10ca-4842-b31b-b943f29dadcb"
     inkscape:window-maximized="1"
     inkscape:window-y="-9"
     inkscape:window-x="-9"
     inkscape:cy="348.52625"
     inkscape:cx="561.62308"
     inkscape:zoom="1"
     showgrid="false"
     id="namedview1800"
     inkscape:window-height="1001"
     inkscape:window-width="1920"
     inkscape:pageshadow="2"
     inkscape:pageopacity="0"
     guidetolerance="10"
     gridtolerance="10"
     objecttolerance="10"
     borderopacity="1"
     bordercolor="#666666"
     pagecolor="#ffffff" />
  <rect
     style="stroke-width:1.51883"
     x="47"
     id="rect1769"
     fill="#e6e6e6"
     height="3.1629391"
     width="636"
     y="385.48236" />
  <rect
     style="stroke-width:1.51883"
     x="47"
     id="rect1771"
     fill="#e6e6e6"
     height="3.1629391"
     width="636"
     y="262.12778" />
  <rect
     style="stroke-width:1.51883"
     x="47"
     id="rect1773"
     fill="#e6e6e6"
     height="3.1629391"
     width="636"
     y="138.77315" />
  <rect
     style="stroke-width:1.51883"
     y="17"
     id="rect1775"
     fill="#e6e6e6"
     height="493.41852"
     width="2.9174314"
     x="554.34131" />
  <rect
     style="stroke-width:1.51883"
     y="17"
     id="rect1777"
     fill="#e6e6e6"
     height="493.41852"
     width="2.9174314"
     x="427.14142" />
  <rect
     style="stroke-width:1.51883"
     y="17"
     id="rect1779"
     fill="#e6e6e6"
     height="493.41852"
     width="2.9174314"
     x="299.94135" />
  <rect
     style="stroke-width:1.51883"
     y="17"
     id="rect1781"
     fill="#e6e6e6"
     height="493.41852"
     width="2.9174314"
     x="172.74121" />
  <rect
     style="fill:#2a7fff;stroke-width:1.51883"
     id="rect1783"
     fill="#00b0ff"
     height="123.35463"
     width="255.27524"
     y="140.35463"
     x="173.90826" />
  <path
     style="stroke-width:1.51883"
     id="path1785"
     fill="#00b0ff"
     d="M 302.16038,254.32011" />
  <polygon
     style="fill:#2a7fff"
     transform="matrix(1.4587156,0,0,1.5814696,47,17)"
     id="polygon1787"
     fill="#00b0ff"
     points="178,153 87,150 87,234 " />
  <path
     style="fill:#2a7fff;stroke-width:1.51883"
     id="path1789"
     fill="#00b0ff"
     d="m 429.18348,258.96488 v 4.74442 l -1.66314,1.59728 -3.35474,3.22619 c -65.24836,2.13499 -117.95157,52.80527 -120.3298,115.63706 l -2.99008,2.87828 -0.0292,0.0158 V 254.22049 Z" />
  <path
     style="stroke-width:1.51883"
     id="path1791"
     fill="#e6e6e6"
     d="m 428.45412,265.29076 c -0.30632,0 -0.6275,0 -0.93378,0.0158 -69.40509,0.47444 -125.81422,54.75047 -126.67462,121.74153 -0.0292,0.5377 -0.0292,1.05958 -0.0292,1.59728 0,68.019 57.25459,123.35462 127.63762,123.35462 70.38302,0 127.63761,-55.33562 127.63761,-123.35462 0,-68.01902 -57.25461,-123.35464 -127.63765,-123.35464 z m 0,243.54631 c -68.76404,0 -124.72018,-53.9123 -124.72018,-120.19168 0,-1.5024 0.0292,-2.98899 0.10181,-4.47556 2.37825,-62.83179 55.08148,-113.50207 120.3298,-115.63706 1.41527,-0.0633 2.84406,-0.0791 4.28854,-0.0791 68.76404,0 124.72018,53.91231 124.72018,120.1917 0,66.27937 -55.95614,120.19168 -124.72018,120.19168 z" />
  <path
     style="stroke-width:1.51883"
     id="path1793"
     fill="#e6e6e6"
     d="m 358.43578,387.08935 -7.29358,-0.0439 c 0.002,-0.70347 1.17136,-70.3445 75.78199,-75.17463 l 0.43447,7.89345 c -67.66698,4.38066 -68.90348,64.7576 -68.92288,67.32516 z" />
  <path
     style="stroke-width:1.51883"
     id="path1795"
     fill="#e6e6e6"
     d="m 502.09006,385.48246 a 62.048,67.269466 0 0 0 -20.39284,-47.61805 77.948918,84.508482 0 0 0 -53.09711,-22.06152 h -0.14601 c -40.07053,0 -72.77552,31.10753 -73.63596,69.67957 -0.0292,0.52187 -0.0292,1.05956 -0.0292,1.58145 0,20.17955 8.70884,38.4139 22.68274,51.38195 a 78.250246,84.835166 0 0 0 50.9824,19.87906 h 0.146 c 40.55202,-0.0791 73.51914,-32.00893 73.51914,-71.26101 2e-5,-0.52189 2e-5,-1.05958 -0.0292,-1.58145 z" />
  <path
     style="fill:#0aabff;fill-opacity:1;stroke-width:1.51883"
     id="path1797"
     fill="#00b0ff"
     d="m 481.69724,337.86441 -2.18806,2.10335 -99.84938,96.37475 -2.18808,2.10335 C 363.49783,425.47781 354.789,407.24346 354.789,387.06391 c 0,-0.52189 0,-1.05958 0.0292,-1.58145 0.86041,-38.57204 33.56541,-69.67957 73.63596,-69.67957 h 0.146 a 77.948918,84.508482 0 0 1 53.09712,22.06152 z" />
</svg>
