<?xml version="1.0" encoding="UTF-8" standalone="no"?>
<svg
   xmlns:dc="http://purl.org/dc/elements/1.1/"
   xmlns:cc="http://creativecommons.org/ns#"
   xmlns:rdf="http://www.w3.org/1999/02/22-rdf-syntax-ns#"
   xmlns:svg="http://www.w3.org/2000/svg"
   xmlns="http://www.w3.org/2000/svg"
   xmlns:sodipodi="http://sodipodi.sourceforge.net/DTD/sodipodi-0.dtd"
   xmlns:inkscape="http://www.inkscape.org/namespaces/inkscape"
   inkscape:version="1.0 (4035a4fb49, 2020-05-01)"
   sodipodi:docname="JunTechPC-Aruba-Meet-Our-Creative-Team.svg"
   version="1.1"
   viewBox="0 0 676 676"
   height="676"
   width="676"
   data-name="Layer 1"
   id="e59edb86-a3bc-4694-8aac-31e565ca5cfc">
  <metadata
     id="metadata1169">
    <rdf:RDF>
      <cc:Work
         rdf:about="">
        <dc:format>image/svg+xml</dc:format>
        <dc:type
           rdf:resource="http://purl.org/dc/dcmitype/StillImage" />
        <dc:title>male_avatar</dc:title>
      </cc:Work>
    </rdf:RDF>
  </metadata>
  <defs
     id="defs1167" />
  <sodipodi:namedview
     inkscape:current-layer="e59edb86-a3bc-4694-8aac-31e565ca5cfc"
     inkscape:window-maximized="1"
     inkscape:window-y="-9"
     inkscape:window-x="-9"
     inkscape:cy="338"
     inkscape:cx="337.59277"
     inkscape:zoom="1.2278107"
     showgrid="false"
     id="namedview1165"
     inkscape:window-height="1001"
     inkscape:window-width="1920"
     inkscape:pageshadow="2"
     inkscape:pageopacity="0"
     guidetolerance="10"
     gridtolerance="10"
     objecttolerance="10"
     borderopacity="1"
     bordercolor="#666666"
     pagecolor="#ffffff" />
  <title
     id="title1134">male_avatar</title>
  <path
     style="fill:#2a7fff"
     id="path1136"
     fill="#00b0ff"
     transform="translate(-262 -112)"
     d="M938,450a336.852,336.852,0,0,1-27.22,133.1L909.66,585.68A338.559,338.559,0,0,1,541.35,782.93q-3.045-.54-6.08-1.12a334.98111,334.98111,0,0,1-61.14-18.03q-4.815-1.935-9.56-4.01c-2.16-.94-4.32-1.91-6.46-2.91A338.41424,338.41424,0,0,1,262,450c0-186.67,151.33-338,338-338S938,263.33,938,450Z" />
  <path
     id="path1146"
     opacity="0.2"
     transform="translate(-262 -112)"
     d="M483.71449,353.52139c-6.38046,35.99732,7.70456,68.59225,7.70456,68.59225s24.42979-25.76825,30.81025-61.76557-7.70457-68.59225-7.70457-68.59225S490.09494,317.52407,483.71449,353.52139Z" />
  <circle
     style="fill:#f4e3d7"
     id="circle1152"
     fill="#d0cde1"
     r="131.77014"
     cy="281.0788"
     cx="337.30608" />
  <path
     style="fill:#f4e3d7"
     id="path1154"
     fill="#d0cde1"
     transform="translate(-262 -112)"
     d="M547.83337,493.96531s16.47127,78.23852,16.47127,86.47415,78.23852,45.296,78.23852,45.296L712.546,613.382,737.253,539.26129s-41.17817-61.76725-41.17817-86.47415Z" />
  <path
     style="fill:#000000"
     id="path1156"
     fill="#2f2e41"
     transform="translate(-262 -112)"
     d="M910.78,583.1,909.66,585.68A338.559,338.559,0,0,1,541.35,782.93q-3.045-.54-6.08-1.12a334.98111,334.98111,0,0,1-61.14-18.03q-4.815-1.935-9.56-4.01c-2.16-.94-4.32-1.91-6.46-2.91a337.59273,337.59273,0,0,1-55.25-32.28l-15.62-45.31,8.78-6.69995,18.06-13.79,19.27-14.71,5.01-3.83,75.61-57.72,5.58-4.26,39.3-30,.01-.01s42.5,69.25,104.27,48.66,60.42-79.63,60.42-79.63Z" />
  <path
     style="fill:#1a1a1a"
     id="path1158"
     fill="#2f2e41"
     transform="translate(-262 -112)"
     d="M485.03538,286.916s41.83653-90.64581,122.02321-69.72755,125.50958,52.29566,128.996,83.67306-1.74319,78.44348-1.74319,78.44348-8.716-64.498-64.498-50.55247-142.94147,3.48638-142.94147,3.48638L512.9264,457.74849s-15.6887-22.66145-33.12058-8.71594S429.25335,314.807,485.03538,286.916Z" />
  <path
     style="fill:#000000"
     id="path1160"
     fill="#2f2e41"
     transform="translate(-262 -112)"
     d="M474.13,763.78q-4.815-1.935-9.56-4.01c-2.16-.94-4.32-1.91-6.46-2.91a338.835,338.835,0,0,1-87.59-58.7c9.19-12.52,16.72-18.89,16.72-18.89h61.77l9.26,31.14Z" />
  <path
     style="fill:#000000"
     id="path1162"
     fill="#2f2e41"
     transform="translate(-262 -112)"
     d="M856.67,576.32l52.99,9.36A337.94434,337.94434,0,0,1,852.9,674.25Z" />
  <ellipse
     style="stroke-width:0.121784"
     ry="27.58172"
     rx="27.830879"
     id="circle151"
     cy="506.44171"
     cx="546.31531" />
  <g
     transform="matrix(0.10871436,0,0,0.1077411,518.5767,478.88255)"
     id="g935"
     style="fill:#0066ff">
    <g
       id="g933"
       style="fill:#0066ff">
      <path
         d="M 437.02,74.98 C 388.667,26.628 324.38,0 256,0 187.62,0 123.333,26.628 74.98,74.98 26.628,123.333 0,187.62 0,256 0,324.38 26.628,388.667 74.98,437.02 123.333,485.372 187.62,512 256,512 324.38,512 388.667,485.372 437.02,437.02 485.372,388.667 512,324.38 512,256 512,187.62 485.372,123.333 437.02,74.98 Z M 256,491.602 C 126.089,491.602 20.398,385.912 20.398,256 20.398,126.088 126.089,20.398 256,20.398 385.911,20.398 491.602,126.089 491.602,256 491.602,385.911 385.911,491.602 256,491.602 Z"
         id="path931"
         style="fill:#0066ff" />
    </g>
  </g>
  <g
     transform="matrix(0.07431769,0,0,0.07365517,528.30983,488.44349)"
     style="fill:#0066ff"
     id="g263">
    <g
       style="fill:#0066ff"
       id="g261">
      <g
         style="fill:#0066ff"
         id="g259">
        <polygon
           style="fill:#0066ff"
           id="polygon249"
           points="0,288.9 45.4,367.7 136.7,367.7 182.1,288.9 136.7,210 45.4,210 " />
        <polygon
           style="fill:#0066ff"
           id="polygon251"
           points="199.2,279.2 290,279.2 335.8,200.3 290,121.5 199.2,121.5 153.7,200.3 " />
        <polygon
           style="fill:#0066ff"
           id="polygon253"
           points="290,456.6 335.8,377.4 290,298.6 199.2,298.6 153.7,377.4 199.2,456.6 " />
        <polygon
           style="fill:#0066ff"
           id="polygon255"
           points="45.4,32.6 0,111.8 45.4,190.6 136.7,190.6 182.1,111.8 136.7,32.6 " />
        <polygon
           style="fill:#0066ff"
           id="polygon257"
           points="443.8,190.6 489.2,111.8 443.8,32.6 352.5,32.6 307.1,111.4 352.5,190.6 " />
      </g>
    </g>
  </g>
</svg>
