<svg xmlns="http://www.w3.org/2000/svg" version="1.1" xmlns:xlink="http://www.w3.org/1999/xlink" xmlns:svgjs="http://svgjs.com/svgjs" width="1440" height="560" preserveAspectRatio="none" viewBox="0 0 1440 560"><g mask="url(&quot;#SvgjsMask1000&quot;)" fill="none"><rect width="1440" height="560" x="0" y="0" fill="#0e2a47"></rect><path d="M0,358.949C84.106,362.967,167.037,411.671,246.294,383.241C331.508,352.674,412.666,287.277,440.218,201.041C467.364,116.074,398.126,32.867,386.492,-55.569C374.657,-145.532,421.585,-246.229,371.43,-321.846C320.665,-398.384,217.187,-413.831,129.906,-442.418C39.956,-471.879,-52.792,-515.703,-144.079,-490.688C-235.831,-465.546,-299.259,-384.917,-356.695,-309.078C-411.199,-237.11,-462.21,-157.098,-465.057,-66.865C-467.786,19.636,-413.299,93.85,-371.805,169.798C-333.209,240.442,-303.37,323.908,-231.621,360.409C-161.383,396.142,-78.715,355.188,0,358.949" fill="#0b2239"></path><path d="M1440 1051.596C1529.076 1035.077 1590.416 960.156 1672.424 921.658 1771.386 875.201 1905.742 890.265 1970.807 802.4110000000001 2036.4569999999999 713.767 2027.578 586.275 1999.886 479.501 1973.643 378.315 1903.725 294.203 1822.074 228.93099999999998 1749.2359999999999 170.704 1654.5430000000001 160.265 1565.58 132.31400000000002 1474.633 103.73899999999998 1385.205 35.04200000000003 1294.08 63.041 1203.008 91.024 1159.991 192.59300000000002 1108.504 272.757 1063.476 342.86400000000003 1034.711 418.019 1014.2149999999999 498.781 991.4549999999999 588.463 960.1089999999999 679.139 982.595 768.89 1007.274 867.396 1058.298 966.137 1144.68 1019.527 1230.651 1072.663 1340.628 1070.024 1440 1051.596" fill="#113255"></path></g><defs><mask id="SvgjsMask1000"><rect width="1440" height="560" fill="#ffffff"></rect></mask></defs></svg>