<svg xmlns="http://www.w3.org/2000/svg" xmlns:xlink="http://www.w3.org/1999/xlink" height="689.787" width="762" xmlns:v="https://vecta.io/nano"><style><![CDATA[.B{opacity:.1}.C{fill:#ccc}.D{fill:#fff}.E{fill:#e6e6e6}.F{fill:#72351c}.G{fill:#fdb797}.H{fill:#00b0ff}.I{fill:#f55f44}.J{fill:#ffb8b8}.K{fill:#2f2e41}]]></style><defs><linearGradient id="A" x1="-515.22" y1="240.206" x2="-515.22" y2="215.689" gradientUnits="userSpaceOnUse"><stop stop-opacity=".25" stop-color="gray" offset="0"/><stop stop-opacity=".12" stop-color="gray" offset=".54"/><stop stop-opacity=".1" stop-color="gray" offset="1"/></linearGradient><path id="B" d="M358.788 352.612a3.426 3.483 0 0 0 0 6.965h61.689a3.426 3.483 0 0 0 .112-6.965q-.056-.001-.112 0z"/><path id="C" d="M336.74 362.555a6.337 6.442 0 1 1 6.337-6.442 6.344 6.449 0 0 1-6.337 6.442zm0-11.713a5.185 5.271 0 1 0 5.185 5.271 5.19 5.277 0 0 0-5.185-5.271z"/><path id="D" d="M271.312 393.519h6.721v2.462h-3.91v.492h3.91v5.662h-6.721v-2.585h3.91v-.492h-3.91z"/><path id="E" d="M-517.557 222.888a.172.146 0 0 0 .135.146 2.696 2.295 0 0 1 1.041.443c.572.381-.609-.762-.609-.762l-.396.075-.161.124z"/><path id="F" d="M-517.557 230.641l.604-.022.52.071h-.182z"/><path id="G" d="M-513.487 228.156h.604l.52.044h-.182z"/><path id="H" d="M-517.557 231.053h.604l.52.053h-.182z"/><path id="I" d="M-513.451 228.156h.604l.52.044h-.172z"/></defs><path d="M605.739 485.786H180.311a27.576 20.413 0 0 1-27.545-20.39V218.052a20.203 14.955 0 0 1 20.18-14.938h439.809a20.552 15.214 0 0 1 20.529 15.197v247.086a27.576 20.413 0 0 1-27.545 20.39z" class="C"/><path d="M190.512 475.73h403.907a29.001 21.4 0 0 0 29.001-21.4V248.963a29.001 21.4 0 0 0-29.001-21.4H190.512a29.001 21.4 0 0 0-29.001 21.4V454.33a29.001 21.4 0 0 0 29.001 21.4z" class="D"/><path fill="#06f" d="M633.439 217.725H152.735v-15.327a27.679 30.24 0 0 1 27.656-30.196h425.392a27.679 30.24 0 0 1 27.656 30.196z"/><g class="D"><ellipse cx="178.115" cy="194.775" rx="4.805" ry="5.284"/><ellipse cx="196.352" cy="194.775" rx="4.805" ry="5.284"/><ellipse cx="214.59" cy="194.775" rx="4.805" ry="5.284"/></g><g class="E"><path d="M182.728 245.369l.583-.834 112.505 108.095-.583.834z"/><path d="M180.724 350.987L296.97 244.334l.605.817-116.246 106.653z"/></g><path d="M595.237 298.946H471.527a3.643 4.458 0 0 1-3.639-4.453V244.24a3.643 4.458 0 0 1 3.639-4.453h123.709a3.643 4.458 0 0 1 3.639 4.453v50.254a3.643 4.458 0 0 1-3.639 4.453zm-123.709-57.888a2.602 3.184 0 0 0-2.599 3.181v50.254a2.602 3.184 0 0 0 2.599 3.181h123.709a2.602 3.184 0 0 0 2.599-3.181V244.24a2.602 3.184 0 0 0-2.599-3.181z" fill="#1a1a1a"/><path d="M514.585 373.202h-52.498a3.643 4.458 0 0 1-3.639-4.453v-50.254a3.643 4.458 0 0 1 3.639-4.453h52.498a3.643 4.458 0 0 1 3.639 4.453v50.254a3.643 4.458 0 0 1-3.639 4.453zm-52.498-57.887a2.602 3.184 0 0 0-2.599 3.181v50.254a2.602 3.184 0 0 0 2.599 3.181h52.498a2.602 3.184 0 0 0 2.599-3.181v-50.254a2.602 3.184 0 0 0-2.599-3.181z" fill="#b3b3b3"/><path d="M295.234 353.464h-110.53a3.255 3.743 0 0 1-3.251-3.738V246.657a3.255 3.742 0 0 1 3.251-3.738h110.53a3.255 3.743 0 0 1 3.251 3.738v103.069a3.255 3.743 0 0 1-3.251 3.738zm-110.53-109.477a2.325 2.673 0 0 0-2.322 2.67v103.069a2.325 2.673 0 0 0 2.322 2.67h110.53a2.325 2.673 0 0 0 2.322-2.67V246.657a2.325 2.673 0 0 0-2.322-2.67z" fill="#999"/><g class="D"><path d="M480.223 354.483h-26.356a.538.514 0 0 1-.099-.007l12.465-20.643a.873.834 0 0 1 1.519 0l8.766 14.516z"/><ellipse ry="3.733" rx="3.904" cx="477.717" cy="334.988"/></g><use xlink:href="#B" class="E"/><use xlink:href="#B" y="18.156" fill="#ececec"/><use xlink:href="#B" y="36.311" class="C"/><use xlink:href="#B" y="54.466" class="E"/><use xlink:href="#B" y="72.621" class="C"/><use xlink:href="#B" y="90.777" fill="#ececec"/><use xlink:href="#C" class="E"/><use xlink:href="#C" y="18.156" class="C"/><g class="E"><use xlink:href="#C" y="36.293"/><use xlink:href="#C" y="54.448"/><use xlink:href="#C" y="72.603"/></g><use xlink:href="#C" y="90.758" class="C"/><g class="H"><ellipse ry="2.928" rx="2.88" cx="336.74" cy="356.113"/><ellipse ry="2.928" rx="2.88" cx="336.74" cy="392.424" opacity=".843"/><ellipse ry="2.928" rx="2.88" cx="336.74" cy="410.579"/><path d="M492.967 365.438h-42.265a6.525 6.714 0 0 1-6.518-6.706v-30.89a6.525 6.714 0 0 1 6.518-6.706h42.265a6.525 6.714 0 0 1 6.518 6.706v30.89a6.525 6.714 0 0 1-6.518 6.706z"/></g><path d="M477.346 341.051h-11.06a3.16 3.252 0 0 1 0-6.503h11.06a3.16 3.252 0 0 1 0 6.503zm6.536 10.974h-24.095a3.16 3.252 0 0 1 0-6.503h24.095a3.16 3.252 0 0 1 0 6.503z" class="D"/><path d="M496.074 392.524c-4.001 0-6.962 3.214-6.829 6.7.127 3.349-.038 7.686-1.228 11.223-1.194 3.547-3.212 5.794-6.508 6.083v3.257c3.296.289 5.314 2.536 6.508 6.083 1.19 3.537 1.355 7.874 1.228 11.223-.133 3.485 2.828 6.7 6.83 6.7h40.998c4.001 0 6.961-3.214 6.829-6.7-.127-3.349.038-7.686 1.228-11.223 1.194-3.547 3.207-5.795 6.503-6.083v-3.257c-3.296-.289-5.309-2.535-6.503-6.083-1.19-3.536-1.355-7.874-1.228-11.223.133-3.485-2.827-6.7-6.829-6.7h-40.999zm32.976 31.559c0 4.8-3.901 7.71-10.374 7.71h-11.019a1.189 1.091 0 0 1-1.189-1.091v-25.088a1.189 1.091 0 0 1 1.189-1.091h10.957c5.398 0 8.94 2.683 8.94 6.803 0 2.892-2.383 5.48-5.419 5.934v.151c4.133.416 6.916 3.043 6.916 6.672zm-11.576-16.102h-6.283v8.145h5.292c4.091 0 6.347-1.512 6.347-4.214 0-2.533-1.94-3.931-5.356-3.931zm-6.283 11.377v8.976h6.514c4.259 0 6.516-1.569 6.516-4.516s-2.319-4.46-6.789-4.46h-6.24z" fill="#7952b3" fill-rule="evenodd"/><path d="M356.728 261.404h65.818v60.257h-65.818z" fill="#f7df1e"/><path d="M374.034 311.758l5.037-2.791c.972 1.577 1.856 2.912 3.976 2.912 2.032 0 3.314-.728 3.314-3.559v-19.253h6.185V308.4c0 5.865-3.755 8.535-9.234 8.535-4.948 0-7.82-2.346-9.278-5.177m21.872-.606l5.036-2.67c1.326 1.982 3.049 3.438 6.097 3.438 2.563 0 4.197-1.173 4.197-2.791 0-1.942-1.679-2.629-4.506-3.761l-1.546-.607c-4.463-1.739-7.423-3.923-7.423-8.534 0-4.247 3.534-7.483 9.057-7.483 3.932 0 6.76 1.254 8.792 4.53l-4.816 2.831c-1.06-1.739-2.209-2.427-3.976-2.427-1.811 0-2.96 1.052-2.96 2.427 0 1.699 1.149 2.387 3.799 3.438l1.546.607c5.258 2.063 8.218 4.166 8.218 8.898 0 5.097-4.374 7.887-10.25 7.887-5.743 0-9.455-2.508-11.266-5.784"/><path d="M229.49 380.533l-4.063 41.913-18.265 4.662-18.214-4.656-4.059-41.919z" fill="#e44d26"/><path d="M207.19 423.545l14.759-3.768 3.472-35.816H207.19z" fill="#f16529"/><path d="M199.291 394.243h7.899v-5.141h-14.001l1.506 15.547h12.495v-5.141h-7.389zm1.258 12.977h-5.605l.782 8.072 11.438 2.924.026-.007v-5.349l-.024.006-6.218-1.546-.398-4.1z" fill="#ebebeb"/><path d="M189.039 369.141h2.838v2.581h2.596v-2.581h2.838v7.817h-2.838v-2.618h-2.596v2.618h-2.838v-7.817zm12.002 2.593h-2.498v-2.592h7.835v2.592h-2.499v5.225h-2.838v-5.225zm6.58-2.593h2.959l1.82 2.747 1.818-2.747h2.96v7.817h-2.826v-3.875l-1.952 2.779h-.049l-1.954-2.779v3.875h-2.776zm10.969 0h2.838v5.233h3.99v2.584h-6.829z"/><path d="M207.17 404.649h6.876l-.648 6.668-6.227 1.548v5.349l11.447-2.921 1.532-15.784h-12.98zm0-10.418v.013h13.487l.5-5.141H207.17v5.129z" class="D"/><path d="M274.951 456.537l-18.102-5.061-4.034-45.572h44.325l-4.038 45.565z" fill="#264de4"/><path d="M289.645 448.567l3.451-38.937h-18.118v43.033z" fill="#2965f1"/><path d="M262.063 426.531l.497 5.589h12.418v-5.589zm-.999-11.312l.504 5.589h13.41v-5.589zm13.914 25.828l-.024.007-6.18-1.681-.395-4.458h-5.57l.777 8.776 11.367 3.178.026-.007v-5.815z" fill="#ebebeb"/><path d="M263.247 393.519h6.721v2.831h-3.91v2.831h3.91v2.831h-6.721z"/><use xlink:href="#D"/><use xlink:href="#D" x="8.065"/><path d="M287.857 426.531l1.002-11.313h-13.9v5.589h7.819l-.505 5.723h-7.314v5.589h6.833l-.644 7.249-6.189 1.683v5.815l11.376-3.176.083-.944 1.304-14.715z" class="D"/><g transform="matrix(.670212 0 0 .678123 861.08532 127.49229)"><path d="M-476.187 252.618l-106.662.397c-5.116-3.695-2.841-16.255-2.117-14.791 26.705-8.803 67.267-13.879 108.779 14.394z" class="H"/><path d="M-396.663 250.776v2.06h-131.83v-.439s64.87-45.657 131.83-1.62z" fill="#00c7ff"/><ellipse ry="7.088" rx="7.405" cx="-566.32" cy="188.156" fill="#ffda00"/><g class="H"><path d="M-527.545 249.35h-4.724s-1.476-36.433 4.724-47.677h1.181s-4.134 41.222-1.181 47.677z" opacity=".775"/><path d="M-530.793 199.799s-3.838 7.496-2.067 10.827c0 0 2.657-6.871 5.754-7.912s6.345 7.912 6.345 7.912 1.772-5.622-1.476-10.189c0 0 6.496 2.499 9.744 7.288 0 0 .591-3.101-7.086-9.578 0 0 6.791 1.249 11.22 4.164 0 0 1.476-2.29-7.677-6.038 0 0 1.181-2.707 8.267-1.458 0 0 0-3.544-11.22-2.915 0 0 0-2.29 7.381-1.874 0 0 0-2.915-8.562-1.874 0 0 1.771-1.874 2.953-2.29a5.937 4.186 0 0 0-4.134.833s.295-3.748-4.134-5.205l-.591 5.205s-4.963-4.124-3.838-3.331c.295.208 1.181 2.707.886 3.956 0 0-5.026-2.915-11.22.208 0 0 7.677.416 8.858 2.29 0 0-6.495-.833-7.972-.208 0 0 5.026 1.249 4.724 2.082 0 0-8.858 0-10.051 2.29 0 0 9.153.833 9.744 1.458 0 0-10.629 5.414-11.22 6.871 0 0 10.924-4.581 12.696-4.581s-7.972 6.645-7.381 8.329c.025-.013 8.022-6.676 10.058-6.26z" opacity=".775"/><path d="M-469.279 247.985h3.606s1.131-27.834-3.606-36.424h-.905s3.166 31.485.905 36.424z"/><path d="M-466.798 210.13s2.934 5.728 1.577 8.271c0 0-2.029-5.25-4.397-6.043s-4.85 6.043-4.85 6.043-1.351-4.293 1.131-7.793a19.606 13.826 0 0 0-7.444 5.569s-.452-2.388 5.415-7.319c0 0-5.189.952-8.569 3.181 0 0-1.131-1.75 5.868-4.612 0 0-.905-2.069-6.313-1.112 0 0 0-2.702 8.569-2.215 0 0 0-1.75-5.654-1.431 0 0 0-2.215 6.54-1.431 0 0-1.351-1.431-2.255-1.75a4.536 3.199 0 0 1 3.141.638s-.226-2.862 3.141-3.987l.452 3.987 2.934-2.543a9.894 6.977 0 0 0-.678 3.021s3.832-2.215 8.569.159c0 0-5.868.319-6.766 1.75 0 0 4.963-.638 6.087-.159 0 0-3.832.952-3.606 1.59 0 0 6.766 0 7.67 1.75 0 0-6.992.638-7.444 1.112 0 0 8.123 4.138 8.569 5.25 0 0-8.343-3.5-9.7-3.5s6.087 5.09 5.654 6.362c.031-.018-6.056-5.099-7.639-4.789zm40.696 32.415h2.236s.697-17.238-2.236-22.558h-.559s1.954 19.515.559 22.558z"/><path d="M-424.563 219.101s1.815 3.544.98 5.121c0 0-1.256-3.252-2.726-3.743s-3.003 3.743-3.003 3.743-.836-2.658.697-4.829a12.143 8.563 0 0 0-4.611 3.447s-.276-1.48 3.355-4.532a14.172 9.994 0 0 0-5.308 1.971s-.697-1.085 3.631-2.857c0 0-.559-1.28-3.914-.691 0 0 0-1.675 5.308-1.378 0 0 0-1.085-3.493-.886 0 0 0-1.378 4.052-.886a6.138 4.328 0 0 0-1.395-1.085 2.808 1.98 0 0 1 1.954.394s-.138-1.772 1.954-2.463l.276 2.463 1.815-1.577a6.125 4.319 0 0 0-.421 1.87 4.353 3.07 0 0 1 5.308.097s-3.631.195-4.19 1.085c0 0 3.072-.394 3.769-.097 0 0-2.375.589-2.236.983 0 0 4.19 0 4.749 1.085 0 0-4.328.394-4.611.691 0 0 5.026 2.561 5.308 3.252l-6.006-2.166c-.836 0 3.769 3.154 3.493 3.938.013.005-3.763-3.15-4.737-2.95z"/></g><path d="M-509.954 223.052h0l-.39-1.772a1.129.961 0 0 0-.354-.696l-1.806-.753a2.045 1.741 0 0 1-.323-.443l.031-.04a1.082.921 0 0 0 .208-.359.718.611 0 0 0 0-.102h.026a.671.571 0 0 0 .744-.443v-.04a.671.571 0 0 1-.609.443 1.842 1.568 0 0 0 .817-1.302v-.066a.666.567 0 0 0 .307-.381v-.04a.666.567 0 0 1-.317.354 1.832 1.559 0 0 0-.115-.443h.047a.671.571 0 0 0 .671-.571v-.04a.671.571 0 0 1-.666.532h-.083v-.027a1.098.935 0 0 0 .77-.758v-.04a.666.567 0 0 1-.135.306.671.571 0 0 0-1.322-.168l-.12-.058a.671.571 0 0 1 .604-.416h-.047a.671.571 0 0 0-.64.385 1.842 1.568 0 0 0-2.321.567c-.14.089-.323.217-.317.328a1.275 1.085 0 0 0-.161.168 2.55 2.171 0 0 0-.208 1.183 1.473 1.254 0 0 1-.479 1.085.635.54 0 0 0 .489 0 1.884 1.604 0 0 0 .432-.217.968.824 0 0 0 .307-.253v-.022a1.52 1.294 0 0 0 .276.124c.037.266.047.571-.094.673h0l.026-.049a1.691 1.44 0 0 1-1.171.284 1.462 1.245 0 0 0-1.212.665l-.567 2.016v.071a.182.155 0 0 0 .135.111l.177.04a3.674 3.128 0 0 1-.12 1.023 10.268 8.741 0 0 0-.203 1.506c.041.253.115 1.568.151 2.193a7.629 6.495 0 0 0-.151.647l-.838 4.279-.593 4.461-.109.598s-1.702 1.816-1.202 2.073 1.27.368 2.004-.598a1.837 1.564 0 0 1 .468-.598.687.585 0 0 0 .234-.501l-.052-.443.088.027h.052s.838-2.344.744-3.987c0 0 1.561-4.705 2.732-5.445v-.031l.109-.044.25 4.559-.255 5.024-.057.301s-1.702 1.816-1.202 2.073 1.27.368 2.004-.598a1.837 1.564 0 0 1 .468-.598.687.585 0 0 0 .234-.501l-.078-.665c.291-.846 1.041-3.283.734-4.696l.52-3.004c.52-.501.453-1.772.453-1.772.411-.731.521-3.597.521-3.597l.104-1.418a1.384 1.178 0 0 1 .234 0h.083v-.027a.156.133 0 0 0 .037-.04h.031v-.036zm-1.457 2.88l-.156-.292h-.042v-.036a.203.173 0 0 1 0-.036v-.036a1.436 1.223 0 0 0 .062-.146.651.554 0 0 0 .099-.306 3.404 2.897 0 0 1 .037.851zm-.156-1.214l-.104-.948.031-.075.14 1.205zm-4.934.128a.39.332 0 0 0-.094.257v.031a1.265 1.077 0 0 0 .047.284l-.161.594v-1.134a2.946 2.507 0 0 0 .281-.381.729.62 0 0 1-.073.35z" fill="url(#A)"/><path d="M-515.449 217.528a2.456 2.091 0 0 0-.203 1.139 1.421 1.209 0 0 1-.463 1.046.614.523 0 0 0 .473 0 1.816 1.546 0 0 0 .416-.208.932.793 0 0 0 .297-.244 1.103.939 0 0 0 .068-.483 6.016 5.121 0 0 1 .089-.864c.031-.177.229-.66 0-.753s-.578.235-.677.368z" class="F"/><path d="M-518.889 236.36l-.161.886s-1.639 1.772-1.155 1.998 1.223.354 1.931-.576a1.769 1.506 0 0 1 .448-.576h0a.661.563 0 0 0 .224-.483l-.161-1.351zm4.933.35l-.161.886s-1.639 1.772-1.155 1.998 1.223.354 1.931-.576a1.769 1.506 0 0 1 .447-.576h0a.661.563 0 0 0 .224-.483l-.161-1.351z" fill="#333"/><path d="M-516.511 226.118s-.77.474-1.041 2.122l-.807 4.124s-.682 3.739-.557 4.457l1.364.399s.807-2.259.718-3.832c0 0 1.639-4.971 2.789-5.316l.245 4.39-.26 4.94 1.166.199s1.181-3.145.807-4.811l.609-3.544s.697-1.892-.271-3.544z" fill="#4d8af0"/><path d="M-514.164 228.138v-.075c-1.15.35-2.789 5.316-2.789 5.316-.028 1.286-.264 2.562-.703 3.792l.146.044s.807-2.259.718-3.832c-.005.004 1.494-4.514 2.628-5.245zm2.462-2.414h-.156c.56 1.111.651 2.352.26 3.513l-.609 3.544c.359 1.577-.687 4.479-.796 4.785l.151.027s1.181-3.145.807-4.811l.609-3.544s.703-1.883-.265-3.513z" class="B"/><use xlink:href="#E" class="I"/><use xlink:href="#E" class="B"/><path d="M-511.926 223.898a3.643 3.101 0 0 1 1.624-.545.151.128 0 0 0 .151-.128h0s-1.363-.456-1.775.673z" class="I"/><path d="M-510.152 223.221s-1.363-.443-1.775.673c0 0 1.004-.656 1.702-.549" class="B"/><ellipse ry="1.511" rx="1.775" cx="-513.508" cy="217.882" class="F"/><path d="M-514.731 218.941s.25.886 0 1.068-.755.518-.375.78 1.738.704 2.191.487.968-.151.843-.594-1.114-.35-1.129-2.552z" class="G"/><path d="M-517.245 222.623a6.495 5.529 0 0 1-.109 1.435 9.888 8.417 0 0 0-.198 1.449c.052.319.161 2.428.161 2.428s-.198 1.847.859 1.679-.161-2.109-.161-2.109l.052-2.521a2.763 2.352 0 0 0 .52-1.13c.078-.607-1.124-1.232-1.124-1.232z" class="B"/><path d="M-517.26 222.623a6.495 5.529 0 0 1-.109 1.435 9.888 8.417 0 0 0-.198 1.449c.052.319.161 2.428.161 2.428s-.198 1.847.859 1.679-.161-2.109-.161-2.109l.052-2.521a2.763 2.352 0 0 0 .52-1.13c.073-.607-1.124-1.232-1.124-1.232z" class="G"/><path d="M-510.5 222.76l-.146 1.971s-.089 2.764-.484 3.464c0 0 .109 1.94-.952 1.892s.177-2.122.177-2.122.567-2.157.276-2.84l-.276-2.366z" class="B"/><path d="M-510.485 222.76l-.146 1.971s-.088 2.764-.484 3.464c0 0 .109 1.94-.952 1.892s.177-2.122.177-2.122.567-2.157.276-2.84l-.276-2.366z" class="G"/><path d="M-513.925 220.851s.859.337 1.327-.665l1.743.727a1.088.926 0 0 1 .338.673l.375 1.71s-1.275-.368-1.671.642l.109.961a1.218 1.037 0 0 1-.057.718.187.159 0 0 0 0 .128.552.47 0 0 1-.52.611 10.58 9.006 0 0 0-1.4.093c-.375.093-1.509-.182-1.884 0s-1.166-.137-1.166-.137l.213-.78s-.146-.381.037-.518.073-1.329-.089-1.666c0 0-.645-.518-1.041-.443l.52-1.971a1.405 1.196 0 0 1 1.166-.642 1.634 1.391 0 0 0 1.129-.275s-.39.727.869.833z" class="B"/><path d="M-513.836 220.815c.234.053.859.111 1.233-.691l1.743.727a1.088.926 0 0 1 .338.673l.375 1.71s-1.275-.368-1.671.642l.109.961.073.19a.64.545 0 0 1-.089.487.203.173 0 0 0-.036.177.552.47 0 0 1-.52.611 10.58 9.006 0 0 0-1.4.093c-.375.093-1.509-.182-1.884 0s-1.166-.137-1.166-.137l.213-.78s-.146-.381.036-.518.073-1.329-.088-1.666c0 0-.645-.518-1.041-.443l.52-1.971a1.405 1.196 0 0 1 1.166-.642 1.634 1.391 0 0 0 1.129-.275s-.422.656.687.797z" class="B"/><path d="M-513.836 220.846c.234.053.859.111 1.233-.691l1.743.727a1.088.926 0 0 1 .338.673l.375 1.71s-1.275-.368-1.671.642l.109.961a1.218 1.037 0 0 1-.057.718.187.159 0 0 0 0 .128.552.47 0 0 1-.521.611 10.58 9.006 0 0 0-1.4.093c-.375.093-1.509-.182-1.884 0s-1.166-.137-1.166-.137l.213-.78s-.146-.381.036-.518.073-1.329-.089-1.666c0 0-.645-.518-1.041-.443l.52-1.971a1.405 1.196 0 0 1 1.166-.642 1.634 1.391 0 0 0 1.129-.275s-.422.656.687.797z" class="I"/><path d="M-513.175 218.21l-1.525.811a4.954 4.217 0 0 1 .089.443 1.468 1.249 0 0 0 .546.089 1.561 1.329 0 0 0 .989-.381 5.928 5.046 0 0 1-.099-.961z" class="B"/><ellipse ry="1.254" rx="1.473" cx="-514.096" cy="218.201" class="G"/><g class="F"><ellipse ry=".549" rx=".645" cx="-511.926" cy="216.691"/><path d="M-511.801 217.271a.645.549 0 0 1-.645-.509v.04a.645.549 0 1 0 1.291 0v-.04a.645.549 0 0 1-.645.509z"/><path d="M-512.171 217.794a.645.549 0 0 1-.52-.602v.036a.646.55 0 1 0 1.27.199v-.04a.645.549 0 0 1-.749.408zm-.499 1.329a.645.549 0 0 1-.52-.602v.036a.646.55 0 0 0 1.27.199v-.04a.645.549 0 0 1-.749.408z"/><path d="M-511.801 216.979a.645.549 0 0 1-.645-.514v.04a.645.549 0 1 0 1.291 0v-.04a.645.549 0 0 1-.645.514z"/><path d="M-512.702 216.682a.645.549 0 0 1 .609-.545h-.047a.645.549 0 0 0 0 1.099h.047a.645.549 0 0 1-.609-.554z"/></g><path d="M-512.051 221.865a2.326 1.98 0 0 1 0 .824s-.089.718.052.842m-4.413-1.498a2.326 1.98 0 0 1 0 .824s-.088.718.053.842m-.09 1.28a.64.545 0 0 0 .432 0 .895.762 0 0 1 .52 0m-.733-1.081a3.721 3.168 0 0 0 1.488-.199s1.832.381 2.352.106" class="B"/><rect x="-517.562" y="230.482" width="1.129" height=".594" rx=".349" ry=".297" class="G"/><g fill="#f0e4e4"><use xlink:href="#F"/><use xlink:href="#G"/><use xlink:href="#G" y="0.106"/><use xlink:href="#G" y="0.217"/><use xlink:href="#G" y="0.323"/><use xlink:href="#H"/><use xlink:href="#H" y="-0.053"/><use xlink:href="#H" y="-0.106"/><use xlink:href="#H" y="-0.159"/><use xlink:href="#F" y="-0.08"/><use xlink:href="#F" y="-0.173"/></g><path d="M-513.846 217.399a3.56 3.03 0 0 0 .208 1.382 1.931 1.644 0 0 1-.078 1.329.52.443 0 0 0 .458-.097 1.775 1.511 0 0 0 .333-.332 1.041.886 0 0 0 .203-.346 1.608 1.369 0 0 0-.104-.585 8.847 7.531 0 0 1-.219-1.032c-.031-.213 0-.824-.281-.886s-.468.39-.52.567z" class="B"/><path d="M-513.81 217.386a3.56 3.03 0 0 0 .208 1.382 1.931 1.644 0 0 1-.078 1.329.52.443 0 0 0 .458-.097 1.775 1.511 0 0 0 .333-.332 1.041.886 0 0 0 .203-.346 1.608 1.369 0 0 0-.104-.585 8.847 7.531 0 0 1-.219-1.032c-.031-.213 0-.824-.281-.886s-.468.385-.52.567z" class="F"/><path d="M-514.445 217.714c.125.111.151.275.255.399a.921.784 0 0 0 .729.248.411.35 0 0 1 .213.04c.115.062.12.204.193.301a.416.354 0 0 0 .609 0 1.004.855 0 0 0 .234-.545 4.007 3.411 0 0 0 0-.66 1.187 1.01 0 0 0-.328-.673 1.384 1.178 0 0 0-.578-.213 1.712 1.458 0 0 0-.89-.058 1.603 1.364 0 0 0-.406.173q-.265.146-.52.297c-.192.115-.557.346-.203.47.224.089.505.049.692.222z" class="B"/><path d="M-514.409 217.696c.125.111.151.275.255.399a.921.784 0 0 0 .729.248.411.35 0 0 1 .213.04c.115.062.12.204.192.301a.416.354 0 0 0 .609 0 1.004.855 0 0 0 .234-.545 4.007 3.411 0 0 0 0-.66 1.187 1.01 0 0 0-.328-.673 1.384 1.178 0 0 0-.578-.213 1.712 1.458 0 0 0-.89-.058 1.603 1.364 0 0 0-.406.173q-.265.146-.52.297c-.192.115-.557.346-.203.47.224.089.52.053.692.221z" class="F"/><g fill="#f0e4e4"><use xlink:href="#I"/><use xlink:href="#I" y="0.106"/><use xlink:href="#I" y="0.217"/><use xlink:href="#I" y="0.323"/><use xlink:href="#G" x="-0.224" y="6.202"/><use xlink:href="#G" x="-0.224" y="6.313"/><use xlink:href="#G" x="-0.224" y="6.419"/><use xlink:href="#G" x="-0.224" y="6.525"/></g><path d="M-473.903 386.096l-2.855 1.428s-11.422 5.235-8.09 8.09 12.373-2.855 12.373-2.855l1.904-2.38z" class="J"/><path d="M-399.185 444.632l-13.326 41.403-7.138-3.331 6.662-56.632-19.036-16.181 1.428-23.795 40.236-.711z" class="K"/><path d="M-420.602 484.132s8.09-4.283 8.566 1.904l-.952 6.187s2.855 10.946-6.663 8.566-2.855-9.518-2.855-9.518z"/><path d="M-425.837 404.656l-6.187 5.235s0 32.361 4.283 37.12 31.41 29.03 32.361 29.982 5.235-9.518 5.235-9.518l-25.699-29.982 1.904-18.56z" class="K"/><path d="M-392.999 466.048s7.614-1.428 7.614 3.807a115.23 115.23 0 0 0 .952 12.373c0 0 1.904 16.657-4.283 14.277s-8.566-19.036-8.566-19.036a7.09 7.09 0 0 1 2.855-3.331c1.904-.952 1.428-8.09 1.428-8.09z"/><g class="J"><path d="M-415.366 332.319l-3.807 6.662-10.47-9.994-.952-13.325 13.801-.952z"/><circle r="11.422" cy="309" cx="-425.361"/></g><path fill="#d0cde1" d="M-415.842 318.042l8.566 9.518 15.705 60.439-11.898 7.139-5.234-7.615-.952 9.994-23.32-4.759-1.903-63.771 4.756-6.699 9.521 9.555z"/><g fill="#333"><path d="M-437.734 390.379l10.47 9.042-2.855-77.096-6.187 4.759-11.422 7.614 7.615 27.127z"/><path d="M-447.728 334.698l-9.518 28.078-19.036 23.796 7.139 7.614 21.891-21.416 8.091-17.608-5.235-19.988z"/></g><path d="M-392.424 386.532l-.649 3.126s-2.971 12.208 1.335 11.363 5.428-11.48 5.428-11.48l-.688-2.969z" class="J"/><path fill="#333" d="M-416.97 321.314l.384-4.045 23.587 9.339-2.855 28.554 5.711 31.41-5.711 6.186z"/><path d="M-424.763 289.817l3.353-1.676v1.676l2.235-1.118v2.794s8.382 6.146 6.705 13.41-1.676 7.823-1.676 7.823-2.119-13.814-10.501-11.579-9.056 2.639-11.291 8.785l-.606 2.636s-9.451-21.635 11.782-22.752z" class="K"/><path fill="#333" d="M-400.137 343.74l3.807-17.132h3.807l6.187 33.313v29.03l-7.614-1.428z"/></g><path d="M281.417 279.852a11.09 10.161 0 0 0-8.856 4.034 7.302 6.69 0 0 0-10.189 6.144h30.154a11.109 10.178 0 0 0-11.109-10.178z" class="E"/><ellipse cx="215.358" cy="303.301" rx="17.89" ry="16.39" class="H"/><path d="M315.806 337.08a8.373 7.946 0 0 1-1.933.212H198.563a8.372 7.945 0 0 1-4.061-.99l.307-.419 35.207-48.104a2.19 2.078 0 0 1 3.599 0l29.823 40.744 21.226-28.752a2.193 2.081 0 0 1 3.593 0l14.399 19.502z" fill="#3f3d56"/><path d="M257.673 296.847a13.683 12.536 0 0 0-10.926 4.977 9.009 8.254 0 0 0-12.57 7.58h37.203a13.706 12.557 0 0 0-13.706-12.557z" class="C"/><path d="M314.087 337.541H198.425a8.687 8.218 0 0 1-8.694-8.225v-62.374a8.704 8.235 0 0 1 8.694-8.225h115.662a8.704 8.235 0 0 1 8.694 8.225v62.374a8.684 8.216 0 0 1-8.694 8.225zm-115.662-78.327a8.177 7.736 0 0 0-8.167 7.727v62.374a8.16 7.72 0 0 0 8.167 7.727h115.662a8.158 7.718 0 0 0 8.167-7.727v-62.374a8.177 7.736 0 0 0-8.167-7.727z" fill="#3f3d56"/></svg>